<svg xmlns="http://www.w3.org/2000/svg" width="760" height="220" viewBox="0 0 760 220" role="img" aria-labelledby="title desc"><title id="title">1034 contributions in 2026</title><desc id="desc">48 active days, peak month 579 (Aug), peak week 337, and peak day 93. Daily chart begins Mar 2026.</desc><style>:root{color-scheme:light dark}.bg{fill:#fff}.ink{fill:#1f2328}.muted{fill:#656d76}.line{stroke:#8c959f}.bar{fill:#8c959f}.stem{stroke:#8c959f}.dot{fill:#1f2328}.grid{stroke:#d8dee4}.track{fill:#eaeef2}@media(prefers-color-scheme:dark){.bg{fill:#0d1117}.ink{fill:#f0f6fc}.muted{fill:#8b949e}.line{stroke:#c9d1d9}.bar{fill:#c9d1d9}.stem{stroke:#8b949e}.dot{fill:#f0f6fc}.grid{stroke:#30363d}.track{fill:#30363d}}text{font-family:ui-monospace,SFMono-Regular,Menlo,Consolas,"Liberation Mono",monospace}</style><rect class="bg" width="760" height="220"/><text x="4" y="52" class="ink" font-size="54" font-weight="600">1034</text><text x="4" y="78" class="muted" font-size="13">contributions in 2026</text><text x="392" y="42" class="ink" font-size="22" font-weight="600" text-anchor="middle">48</text><text x="392" y="63" class="muted" font-size="9.5" text-anchor="middle">active days</text><text x="483" y="42" class="ink" font-size="22" font-weight="600" text-anchor="middle">579</text><text x="483" y="63" class="muted" font-size="9.5" text-anchor="middle">peak month</text><text x="483" y="79" class="muted" font-size="9" text-anchor="middle">Aug</text><text x="574" y="42" class="ink" font-size="22" font-weight="600" text-anchor="middle">337</text><text x="574" y="63" class="muted" font-size="9.5" text-anchor="middle">peak week</text><text x="665" y="42" class="ink" font-size="22" font-weight="600" text-anchor="middle">93</text><text x="665" y="63" class="muted" font-size="9.5" text-anchor="middle">peak day</text><line x1="4" y1="196" x2="756" y2="196" class="grid" stroke-width="1"/><text x="7.00" y="115" class="muted" font-size="10">Mar</text><line x1="117.17" y1="122" x2="117.17" y2="196" class="grid" stroke-width="1" stroke-dasharray="2 4"/><text x="120.17" y="115" class="muted" font-size="10">Apr</text><line x1="226.68" y1="122" x2="226.68" y2="196" class="grid" stroke-width="1" stroke-dasharray="2 4"/><text x="229.68" y="115" class="muted" font-size="10">May</text><line x1="339.84" y1="122" x2="339.84" y2="196" class="grid" stroke-width="1" stroke-dasharray="2 4"/><text x="342.84" y="115" class="muted" font-size="10">Jun</text><line x1="449.36" y1="122" x2="449.36" y2="196" class="grid" stroke-width="1" stroke-dasharray="2 4"/><text x="452.36" y="115" class="muted" font-size="10">Jul</text><line x1="562.52" y1="122" x2="562.52" y2="196" class="grid" stroke-width="1" stroke-dasharray="2 4"/><text x="565.52" y="115" class="muted" font-size="10">Aug</text><line x1="675.69" y1="122" x2="675.69" y2="196" class="grid" stroke-width="1" stroke-dasharray="2 4"/><text x="678.69" y="115" class="muted" font-size="10">Sep</text><g><title>2026-03-16: 7 contributions</title><line x1="58.76" y1="196" x2="58.76" y2="175.70" class="stem" stroke-width="1.35" stroke-linecap="round"/><circle cx="58.76" cy="175.70" r="2.09" class="dot"/></g><g><title>2026-05-19: 14 contributions</title><line x1="292.39" y1="196" x2="292.39" y2="167.29" class="stem" stroke-width="1.35" stroke-linecap="round"/><circle cx="292.39" cy="167.29" r="2.30" class="dot"/></g><g><title>2026-05-21: 30 contributions</title><line x1="299.69" y1="196" x2="299.69" y2="153.97" class="stem" stroke-width="1.35" stroke-linecap="round"/><circle cx="299.69" cy="153.97" r="2.62" class="dot"/></g><g><title>2026-07-10: 25 contributions</title><line x1="482.21" y1="196" x2="482.21" y2="157.63" class="stem" stroke-width="1.35" stroke-linecap="round"/><circle cx="482.21" cy="157.63" r="2.53" class="dot"/></g><g><title>2026-07-13: 2 contributions</title><line x1="493.17" y1="196" x2="493.17" y2="185.15" class="stem" stroke-width="1.35" stroke-linecap="round"/><circle cx="493.17" cy="185.15" r="1.86" class="dot"/></g><g><title>2026-07-14: 36 contributions</title><line x1="496.82" y1="196" x2="496.82" y2="149.96" class="stem" stroke-width="1.35" stroke-linecap="round"/><circle cx="496.82" cy="149.96" r="2.72" class="dot"/></g><g><title>2026-07-22: 46 contributions</title><line x1="526.02" y1="196" x2="526.02" y2="143.96" class="stem" stroke-width="1.35" stroke-linecap="round"/><circle cx="526.02" cy="143.96" r="2.87" class="dot"/></g><g><title>2026-07-23: 11 contributions</title><line x1="529.67" y1="196" x2="529.67" y2="170.55" class="stem" stroke-width="1.35" stroke-linecap="round"/><circle cx="529.67" cy="170.55" r="2.22" class="dot"/></g><g><title>2026-07-24: 25 contributions</title><line x1="533.32" y1="196" x2="533.32" y2="157.63" class="stem" stroke-width="1.35" stroke-linecap="round"/><circle cx="533.32" cy="157.63" r="2.53" class="dot"/></g><g><title>2026-08-12: 8 contributions</title><line x1="602.68" y1="196" x2="602.68" y2="174.30" class="stem" stroke-width="1.35" stroke-linecap="round"/><circle cx="602.68" cy="174.30" r="2.13" class="dot"/></g><g><title>2026-08-13: 12 contributions</title><line x1="606.33" y1="196" x2="606.33" y2="169.42" class="stem" stroke-width="1.35" stroke-linecap="round"/><circle cx="606.33" cy="169.42" r="2.25" class="dot"/></g><g><title>2026-08-14: 8 contributions</title><line x1="609.98" y1="196" x2="609.98" y2="174.30" class="stem" stroke-width="1.35" stroke-linecap="round"/><circle cx="609.98" cy="174.30" r="2.13" class="dot"/></g><g><title>2026-08-15: 37 contributions</title><line x1="613.63" y1="196" x2="613.63" y2="149.32" class="stem" stroke-width="1.35" stroke-linecap="round"/><circle cx="613.63" cy="149.32" r="2.74" class="dot"/></g><g><title>2026-08-16: 36 contributions</title><line x1="617.28" y1="196" x2="617.28" y2="149.96" class="stem" stroke-width="1.35" stroke-linecap="round"/><circle cx="617.28" cy="149.96" r="2.72" class="dot"/></g><g><title>2026-08-17: 74 contributions</title><line x1="620.93" y1="196" x2="620.93" y2="129.99" class="stem" stroke-width="1.35" stroke-linecap="round"/><circle cx="620.93" cy="129.99" r="3.21" class="dot"/></g><g><title>2026-08-18: 93 contributions</title><line x1="624.58" y1="196" x2="624.58" y2="122.00" class="stem" stroke-width="1.35" stroke-linecap="round"/><circle cx="624.58" cy="122.00" r="3.40" class="dot"/></g><g><title>2026-08-19: 1 contribution</title><line x1="628.23" y1="196" x2="628.23" y2="188.33" class="stem" stroke-width="1.35" stroke-linecap="round"/><circle cx="628.23" cy="188.33" r="1.79" class="dot"/></g><g><title>2026-08-20: 23 contributions</title><line x1="631.88" y1="196" x2="631.88" y2="159.20" class="stem" stroke-width="1.35" stroke-linecap="round"/><circle cx="631.88" cy="159.20" r="2.50" class="dot"/></g><g><title>2026-08-21: 75 contributions</title><line x1="635.53" y1="196" x2="635.53" y2="129.55" class="stem" stroke-width="1.35" stroke-linecap="round"/><circle cx="635.53" cy="129.55" r="3.22" class="dot"/></g><g><title>2026-08-22: 35 contributions</title><line x1="639.18" y1="196" x2="639.18" y2="150.60" class="stem" stroke-width="1.35" stroke-linecap="round"/><circle cx="639.18" cy="150.60" r="2.70" class="dot"/></g><g><title>2026-08-23: 38 contributions</title><line x1="642.83" y1="196" x2="642.83" y2="148.70" class="stem" stroke-width="1.35" stroke-linecap="round"/><circle cx="642.83" cy="148.70" r="2.75" class="dot"/></g><g><title>2026-08-24: 43 contributions</title><line x1="646.49" y1="196" x2="646.49" y2="145.68" class="stem" stroke-width="1.35" stroke-linecap="round"/><circle cx="646.49" cy="145.68" r="2.82" class="dot"/></g><g><title>2026-08-25: 38 contributions</title><line x1="650.14" y1="196" x2="650.14" y2="148.70" class="stem" stroke-width="1.35" stroke-linecap="round"/><circle cx="650.14" cy="148.70" r="2.75" class="dot"/></g><g><title>2026-08-26: 15 contributions</title><line x1="653.79" y1="196" x2="653.79" y2="166.28" class="stem" stroke-width="1.35" stroke-linecap="round"/><circle cx="653.79" cy="166.28" r="2.32" class="dot"/></g><g><title>2026-08-27: 10 contributions</title><line x1="657.44" y1="196" x2="657.44" y2="171.73" class="stem" stroke-width="1.35" stroke-linecap="round"/><circle cx="657.44" cy="171.73" r="2.19" class="dot"/></g><g><title>2026-08-28: 17 contributions</title><line x1="661.09" y1="196" x2="661.09" y2="164.36" class="stem" stroke-width="1.35" stroke-linecap="round"/><circle cx="661.09" cy="164.36" r="2.37" class="dot"/></g><g><title>2026-08-31: 16 contributions</title><line x1="672.04" y1="196" x2="672.04" y2="165.31" class="stem" stroke-width="1.35" stroke-linecap="round"/><circle cx="672.04" cy="165.31" r="2.35" class="dot"/></g><g><title>2026-09-01: 7 contributions</title><line x1="675.69" y1="196" x2="675.69" y2="175.70" class="stem" stroke-width="1.35" stroke-linecap="round"/><circle cx="675.69" cy="175.70" r="2.09" class="dot"/></g><g><title>2026-09-02: 9 contributions</title><line x1="679.34" y1="196" x2="679.34" y2="172.98" class="stem" stroke-width="1.35" stroke-linecap="round"/><circle cx="679.34" cy="172.98" r="2.16" class="dot"/></g><g><title>2026-09-04: 20 contributions</title><line x1="686.64" y1="196" x2="686.64" y2="161.68" class="stem" stroke-width="1.35" stroke-linecap="round"/><circle cx="686.64" cy="161.68" r="2.43" class="dot"/></g><g><title>2026-09-05: 16 contributions</title><line x1="690.29" y1="196" x2="690.29" y2="165.31" class="stem" stroke-width="1.35" stroke-linecap="round"/><circle cx="690.29" cy="165.31" r="2.35" class="dot"/></g><g><title>2026-09-06: 46 contributions</title><line x1="693.94" y1="196" x2="693.94" y2="143.96" class="stem" stroke-width="1.35" stroke-linecap="round"/><circle cx="693.94" cy="143.96" r="2.87" class="dot"/></g><g><title>2026-09-07: 20 contributions</title><line x1="697.59" y1="196" x2="697.59" y2="161.68" class="stem" stroke-width="1.35" stroke-linecap="round"/><circle cx="697.59" cy="161.68" r="2.43" class="dot"/></g><g><title>2026-09-08: 25 contributions</title><line x1="701.24" y1="196" x2="701.24" y2="157.63" class="stem" stroke-width="1.35" stroke-linecap="round"/><circle cx="701.24" cy="157.63" r="2.53" class="dot"/></g><g><title>2026-09-09: 3 contributions</title><line x1="704.89" y1="196" x2="704.89" y2="182.71" class="stem" stroke-width="1.35" stroke-linecap="round"/><circle cx="704.89" cy="182.71" r="1.92" class="dot"/></g><g><title>2026-09-10: 34 contributions</title><line x1="708.54" y1="196" x2="708.54" y2="151.26" class="stem" stroke-width="1.35" stroke-linecap="round"/><circle cx="708.54" cy="151.26" r="2.69" class="dot"/></g><g><title>2026-09-11: 3 contributions</title><line x1="712.19" y1="196" x2="712.19" y2="182.71" class="stem" stroke-width="1.35" stroke-linecap="round"/><circle cx="712.19" cy="182.71" r="1.92" class="dot"/></g><g><title>2026-09-12: 7 contributions</title><line x1="715.84" y1="196" x2="715.84" y2="175.70" class="stem" stroke-width="1.35" stroke-linecap="round"/><circle cx="715.84" cy="175.70" r="2.09" class="dot"/></g><g><title>2026-09-13: 7 contributions</title><line x1="719.50" y1="196" x2="719.50" y2="175.70" class="stem" stroke-width="1.35" stroke-linecap="round"/><circle cx="719.50" cy="175.70" r="2.09" class="dot"/></g><g><title>2026-09-14: 9 contributions</title><line x1="723.15" y1="196" x2="723.15" y2="172.98" class="stem" stroke-width="1.35" stroke-linecap="round"/><circle cx="723.15" cy="172.98" r="2.16" class="dot"/></g><g><title>2026-09-15: 8 contributions</title><line x1="726.80" y1="196" x2="726.80" y2="174.30" class="stem" stroke-width="1.35" stroke-linecap="round"/><circle cx="726.80" cy="174.30" r="2.13" class="dot"/></g><g><title>2026-09-16: 8 contributions</title><line x1="730.45" y1="196" x2="730.45" y2="174.30" class="stem" stroke-width="1.35" stroke-linecap="round"/><circle cx="730.45" cy="174.30" r="2.13" class="dot"/></g><g><title>2026-09-17: 1 contribution</title><line x1="734.10" y1="196" x2="734.10" y2="188.33" class="stem" stroke-width="1.35" stroke-linecap="round"/><circle cx="734.10" cy="188.33" r="1.79" class="dot"/></g><g><title>2026-09-19: 17 contributions</title><line x1="741.40" y1="196" x2="741.40" y2="164.36" class="stem" stroke-width="1.35" stroke-linecap="round"/><circle cx="741.40" cy="164.36" r="2.37" class="dot"/></g><g><title>2026-09-20: 5 contributions</title><line x1="745.05" y1="196" x2="745.05" y2="178.84" class="stem" stroke-width="1.35" stroke-linecap="round"/><circle cx="745.05" cy="178.84" r="2.02" class="dot"/></g><g><title>2026-09-21: 10 contributions</title><line x1="748.70" y1="196" x2="748.70" y2="171.73" class="stem" stroke-width="1.35" stroke-linecap="round"/><circle cx="748.70" cy="171.73" r="2.19" class="dot"/></g><g><title>2026-09-22: 3 contributions</title><line x1="752.35" y1="196" x2="752.35" y2="182.71" class="stem" stroke-width="1.35" stroke-linecap="round"/><circle cx="752.35" cy="182.71" r="1.92" class="dot"/></g></svg>