<svg xmlns="http://www.w3.org/2000/svg" width="760" height="220" viewBox="0 0 760 220" role="img" aria-labelledby="title desc"><title id="title">969 contributions in 2026</title><desc id="desc">46 active days, peak month 577 (Aug), peak week 336, and peak day 93. Daily chart begins Mar 2026.</desc><style>:root{color-scheme:light dark}.bg{fill:#fff}.ink{fill:#1f2328}.muted{fill:#656d76}.line{stroke:#8c959f}.bar{fill:#8c959f}.stem{stroke:#8c959f}.dot{fill:#1f2328}.grid{stroke:#d8dee4}.track{fill:#eaeef2}@media(prefers-color-scheme:dark){.bg{fill:#0d1117}.ink{fill:#f0f6fc}.muted{fill:#8b949e}.line{stroke:#c9d1d9}.bar{fill:#c9d1d9}.stem{stroke:#8b949e}.dot{fill:#f0f6fc}.grid{stroke:#30363d}.track{fill:#30363d}}text{font-family:ui-monospace,SFMono-Regular,Menlo,Consolas,"Liberation Mono",monospace}</style><rect class="bg" width="760" height="220"/><text x="4" y="52" class="ink" font-size="54" font-weight="600">969</text><text x="4" y="78" class="muted" font-size="13">contributions in 2026</text><text x="392" y="42" class="ink" font-size="22" font-weight="600" text-anchor="middle">46</text><text x="392" y="63" class="muted" font-size="9.5" text-anchor="middle">active days</text><text x="483" y="42" class="ink" font-size="22" font-weight="600" text-anchor="middle">577</text><text x="483" y="63" class="muted" font-size="9.5" text-anchor="middle">peak month</text><text x="483" y="79" class="muted" font-size="9" text-anchor="middle">Aug</text><text x="574" y="42" class="ink" font-size="22" font-weight="600" text-anchor="middle">336</text><text x="574" y="63" class="muted" font-size="9.5" text-anchor="middle">peak week</text><text x="665" y="42" class="ink" font-size="22" font-weight="600" text-anchor="middle">93</text><text x="665" y="63" class="muted" font-size="9.5" text-anchor="middle">peak day</text><line x1="4" y1="196" x2="756" y2="196" class="grid" stroke-width="1"/><text x="7.00" y="115" class="muted" font-size="10">Mar</text><line x1="118.84" y1="122" x2="118.84" y2="196" class="grid" stroke-width="1" stroke-dasharray="2 4"/><text x="121.84" y="115" class="muted" font-size="10">Apr</text><line x1="229.97" y1="122" x2="229.97" y2="196" class="grid" stroke-width="1" stroke-dasharray="2 4"/><text x="232.97" y="115" class="muted" font-size="10">May</text><line x1="344.81" y1="122" x2="344.81" y2="196" class="grid" stroke-width="1" stroke-dasharray="2 4"/><text x="347.81" y="115" class="muted" font-size="10">Jun</text><line x1="455.94" y1="122" x2="455.94" y2="196" class="grid" stroke-width="1" stroke-dasharray="2 4"/><text x="458.94" y="115" class="muted" font-size="10">Jul</text><line x1="570.78" y1="122" x2="570.78" y2="196" class="grid" stroke-width="1" stroke-dasharray="2 4"/><text x="573.78" y="115" class="muted" font-size="10">Aug</text><line x1="685.62" y1="122" x2="685.62" y2="196" class="grid" stroke-width="1" stroke-dasharray="2 4"/><text x="688.62" y="115" class="muted" font-size="10">Sep</text><g><title>2026-03-16: 7 contributions</title><line x1="59.57" y1="196" x2="59.57" y2="175.70" class="stem" stroke-width="1.35" stroke-linecap="round"/><circle cx="59.57" cy="175.70" r="2.09" class="dot"/></g><g><title>2026-05-19: 14 contributions</title><line x1="296.65" y1="196" x2="296.65" y2="167.29" class="stem" stroke-width="1.35" stroke-linecap="round"/><circle cx="296.65" cy="167.29" r="2.30" class="dot"/></g><g><title>2026-05-21: 30 contributions</title><line x1="304.06" y1="196" x2="304.06" y2="153.97" class="stem" stroke-width="1.35" stroke-linecap="round"/><circle cx="304.06" cy="153.97" r="2.62" class="dot"/></g><g><title>2026-07-10: 25 contributions</title><line x1="489.28" y1="196" x2="489.28" y2="157.63" class="stem" stroke-width="1.35" stroke-linecap="round"/><circle cx="489.28" cy="157.63" r="2.53" class="dot"/></g><g><title>2026-07-13: 2 contributions</title><line x1="500.39" y1="196" x2="500.39" y2="185.15" class="stem" stroke-width="1.35" stroke-linecap="round"/><circle cx="500.39" cy="185.15" r="1.86" class="dot"/></g><g><title>2026-07-14: 36 contributions</title><line x1="504.10" y1="196" x2="504.10" y2="149.96" class="stem" stroke-width="1.35" stroke-linecap="round"/><circle cx="504.10" cy="149.96" r="2.72" class="dot"/></g><g><title>2026-07-22: 23 contributions</title><line x1="533.73" y1="196" x2="533.73" y2="159.20" class="stem" stroke-width="1.35" stroke-linecap="round"/><circle cx="533.73" cy="159.20" r="2.50" class="dot"/></g><g><title>2026-07-23: 8 contributions</title><line x1="537.44" y1="196" x2="537.44" y2="174.30" class="stem" stroke-width="1.35" stroke-linecap="round"/><circle cx="537.44" cy="174.30" r="2.13" class="dot"/></g><g><title>2026-07-24: 19 contributions</title><line x1="541.14" y1="196" x2="541.14" y2="162.55" class="stem" stroke-width="1.35" stroke-linecap="round"/><circle cx="541.14" cy="162.55" r="2.41" class="dot"/></g><g><title>2026-08-12: 7 contributions</title><line x1="611.53" y1="196" x2="611.53" y2="175.70" class="stem" stroke-width="1.35" stroke-linecap="round"/><circle cx="611.53" cy="175.70" r="2.09" class="dot"/></g><g><title>2026-08-13: 13 contributions</title><line x1="615.23" y1="196" x2="615.23" y2="168.33" class="stem" stroke-width="1.35" stroke-linecap="round"/><circle cx="615.23" cy="168.33" r="2.27" class="dot"/></g><g><title>2026-08-14: 7 contributions</title><line x1="618.94" y1="196" x2="618.94" y2="175.70" class="stem" stroke-width="1.35" stroke-linecap="round"/><circle cx="618.94" cy="175.70" r="2.09" class="dot"/></g><g><title>2026-08-15: 37 contributions</title><line x1="622.64" y1="196" x2="622.64" y2="149.32" class="stem" stroke-width="1.35" stroke-linecap="round"/><circle cx="622.64" cy="149.32" r="2.74" class="dot"/></g><g><title>2026-08-16: 37 contributions</title><line x1="626.34" y1="196" x2="626.34" y2="149.32" class="stem" stroke-width="1.35" stroke-linecap="round"/><circle cx="626.34" cy="149.32" r="2.74" class="dot"/></g><g><title>2026-08-17: 73 contributions</title><line x1="630.05" y1="196" x2="630.05" y2="130.44" class="stem" stroke-width="1.35" stroke-linecap="round"/><circle cx="630.05" cy="130.44" r="3.19" class="dot"/></g><g><title>2026-08-18: 93 contributions</title><line x1="633.75" y1="196" x2="633.75" y2="122.00" class="stem" stroke-width="1.35" stroke-linecap="round"/><circle cx="633.75" cy="122.00" r="3.40" class="dot"/></g><g><title>2026-08-19: 1 contribution</title><line x1="637.46" y1="196" x2="637.46" y2="188.33" class="stem" stroke-width="1.35" stroke-linecap="round"/><circle cx="637.46" cy="188.33" r="1.79" class="dot"/></g><g><title>2026-08-20: 25 contributions</title><line x1="641.16" y1="196" x2="641.16" y2="157.63" class="stem" stroke-width="1.35" stroke-linecap="round"/><circle cx="641.16" cy="157.63" r="2.53" class="dot"/></g><g><title>2026-08-21: 75 contributions</title><line x1="644.87" y1="196" x2="644.87" y2="129.55" class="stem" stroke-width="1.35" stroke-linecap="round"/><circle cx="644.87" cy="129.55" r="3.22" class="dot"/></g><g><title>2026-08-22: 32 contributions</title><line x1="648.57" y1="196" x2="648.57" y2="152.59" class="stem" stroke-width="1.35" stroke-linecap="round"/><circle cx="648.57" cy="152.59" r="2.66" class="dot"/></g><g><title>2026-08-23: 37 contributions</title><line x1="652.28" y1="196" x2="652.28" y2="149.32" class="stem" stroke-width="1.35" stroke-linecap="round"/><circle cx="652.28" cy="149.32" r="2.74" class="dot"/></g><g><title>2026-08-24: 44 contributions</title><line x1="655.98" y1="196" x2="655.98" y2="145.10" class="stem" stroke-width="1.35" stroke-linecap="round"/><circle cx="655.98" cy="145.10" r="2.84" class="dot"/></g><g><title>2026-08-25: 37 contributions</title><line x1="659.68" y1="196" x2="659.68" y2="149.32" class="stem" stroke-width="1.35" stroke-linecap="round"/><circle cx="659.68" cy="149.32" r="2.74" class="dot"/></g><g><title>2026-08-26: 16 contributions</title><line x1="663.39" y1="196" x2="663.39" y2="165.31" class="stem" stroke-width="1.35" stroke-linecap="round"/><circle cx="663.39" cy="165.31" r="2.35" class="dot"/></g><g><title>2026-08-27: 9 contributions</title><line x1="667.09" y1="196" x2="667.09" y2="172.98" class="stem" stroke-width="1.35" stroke-linecap="round"/><circle cx="667.09" cy="172.98" r="2.16" class="dot"/></g><g><title>2026-08-28: 17 contributions</title><line x1="670.80" y1="196" x2="670.80" y2="164.36" class="stem" stroke-width="1.35" stroke-linecap="round"/><circle cx="670.80" cy="164.36" r="2.37" class="dot"/></g><g><title>2026-08-31: 17 contributions</title><line x1="681.91" y1="196" x2="681.91" y2="164.36" class="stem" stroke-width="1.35" stroke-linecap="round"/><circle cx="681.91" cy="164.36" r="2.37" class="dot"/></g><g><title>2026-09-01: 8 contributions</title><line x1="685.62" y1="196" x2="685.62" y2="174.30" class="stem" stroke-width="1.35" stroke-linecap="round"/><circle cx="685.62" cy="174.30" r="2.13" class="dot"/></g><g><title>2026-09-02: 7 contributions</title><line x1="689.32" y1="196" x2="689.32" y2="175.70" class="stem" stroke-width="1.35" stroke-linecap="round"/><circle cx="689.32" cy="175.70" r="2.09" class="dot"/></g><g><title>2026-09-04: 19 contributions</title><line x1="696.73" y1="196" x2="696.73" y2="162.55" class="stem" stroke-width="1.35" stroke-linecap="round"/><circle cx="696.73" cy="162.55" r="2.41" class="dot"/></g><g><title>2026-09-05: 15 contributions</title><line x1="700.43" y1="196" x2="700.43" y2="166.28" class="stem" stroke-width="1.35" stroke-linecap="round"/><circle cx="700.43" cy="166.28" r="2.32" class="dot"/></g><g><title>2026-09-06: 48 contributions</title><line x1="704.14" y1="196" x2="704.14" y2="142.84" class="stem" stroke-width="1.35" stroke-linecap="round"/><circle cx="704.14" cy="142.84" r="2.89" class="dot"/></g><g><title>2026-09-07: 21 contributions</title><line x1="707.84" y1="196" x2="707.84" y2="160.84" class="stem" stroke-width="1.35" stroke-linecap="round"/><circle cx="707.84" cy="160.84" r="2.46" class="dot"/></g><g><title>2026-09-08: 22 contributions</title><line x1="711.55" y1="196" x2="711.55" y2="160.01" class="stem" stroke-width="1.35" stroke-linecap="round"/><circle cx="711.55" cy="160.01" r="2.48" class="dot"/></g><g><title>2026-09-09: 3 contributions</title><line x1="715.25" y1="196" x2="715.25" y2="182.71" class="stem" stroke-width="1.35" stroke-linecap="round"/><circle cx="715.25" cy="182.71" r="1.92" class="dot"/></g><g><title>2026-09-10: 19 contributions</title><line x1="718.96" y1="196" x2="718.96" y2="162.55" class="stem" stroke-width="1.35" stroke-linecap="round"/><circle cx="718.96" cy="162.55" r="2.41" class="dot"/></g><g><title>2026-09-11: 3 contributions</title><line x1="722.66" y1="196" x2="722.66" y2="182.71" class="stem" stroke-width="1.35" stroke-linecap="round"/><circle cx="722.66" cy="182.71" r="1.92" class="dot"/></g><g><title>2026-09-12: 7 contributions</title><line x1="726.36" y1="196" x2="726.36" y2="175.70" class="stem" stroke-width="1.35" stroke-linecap="round"/><circle cx="726.36" cy="175.70" r="2.09" class="dot"/></g><g><title>2026-09-13: 7 contributions</title><line x1="730.07" y1="196" x2="730.07" y2="175.70" class="stem" stroke-width="1.35" stroke-linecap="round"/><circle cx="730.07" cy="175.70" r="2.09" class="dot"/></g><g><title>2026-09-14: 9 contributions</title><line x1="733.77" y1="196" x2="733.77" y2="172.98" class="stem" stroke-width="1.35" stroke-linecap="round"/><circle cx="733.77" cy="172.98" r="2.16" class="dot"/></g><g><title>2026-09-15: 8 contributions</title><line x1="737.48" y1="196" x2="737.48" y2="174.30" class="stem" stroke-width="1.35" stroke-linecap="round"/><circle cx="737.48" cy="174.30" r="2.13" class="dot"/></g><g><title>2026-09-16: 8 contributions</title><line x1="741.18" y1="196" x2="741.18" y2="174.30" class="stem" stroke-width="1.35" stroke-linecap="round"/><circle cx="741.18" cy="174.30" r="2.13" class="dot"/></g><g><title>2026-09-17: 1 contribution</title><line x1="744.89" y1="196" x2="744.89" y2="188.33" class="stem" stroke-width="1.35" stroke-linecap="round"/><circle cx="744.89" cy="188.33" r="1.79" class="dot"/></g><g><title>2026-09-19: 17 contributions</title><line x1="752.30" y1="196" x2="752.30" y2="164.36" class="stem" stroke-width="1.35" stroke-linecap="round"/><circle cx="752.30" cy="164.36" r="2.37" class="dot"/></g><g><title>2026-09-20: 5 contributions</title><line x1="756.00" y1="196" x2="756.00" y2="178.84" class="stem" stroke-width="1.35" stroke-linecap="round"/><circle cx="756.00" cy="178.84" r="2.02" class="dot"/></g></svg>