<svg xmlns="http://www.w3.org/2000/svg" width="760" height="220" viewBox="0 0 760 220" role="img" aria-labelledby="title desc"><title id="title">1035 contributions in 2026</title><desc id="desc">49 active days, peak month 579 (Aug), peak week 337, and peak day 93. Daily chart begins Mar 2026.</desc><style>:root{color-scheme:light dark}.bg{fill:#fff}.ink{fill:#1f2328}.muted{fill:#656d76}.line{stroke:#8c959f}.bar{fill:#8c959f}.stem{stroke:#8c959f}.dot{fill:#1f2328}.grid{stroke:#d8dee4}.track{fill:#eaeef2}@media(prefers-color-scheme:dark){.bg{fill:#0d1117}.ink{fill:#f0f6fc}.muted{fill:#8b949e}.line{stroke:#c9d1d9}.bar{fill:#c9d1d9}.stem{stroke:#8b949e}.dot{fill:#f0f6fc}.grid{stroke:#30363d}.track{fill:#30363d}}text{font-family:ui-monospace,SFMono-Regular,Menlo,Consolas,"Liberation Mono",monospace}</style><rect class="bg" width="760" height="220"/><text x="4" y="52" class="ink" font-size="54" font-weight="600">1035</text><text x="4" y="78" class="muted" font-size="13">contributions in 2026</text><text x="392" y="42" class="ink" font-size="22" font-weight="600" text-anchor="middle">49</text><text x="392" y="63" class="muted" font-size="9.5" text-anchor="middle">active days</text><text x="483" y="42" class="ink" font-size="22" font-weight="600" text-anchor="middle">579</text><text x="483" y="63" class="muted" font-size="9.5" text-anchor="middle">peak month</text><text x="483" y="79" class="muted" font-size="9" text-anchor="middle">Aug</text><text x="574" y="42" class="ink" font-size="22" font-weight="600" text-anchor="middle">337</text><text x="574" y="63" class="muted" font-size="9.5" text-anchor="middle">peak week</text><text x="665" y="42" class="ink" font-size="22" font-weight="600" text-anchor="middle">93</text><text x="665" y="63" class="muted" font-size="9.5" text-anchor="middle">peak day</text><line x1="4" y1="196" x2="756" y2="196" class="grid" stroke-width="1"/><text x="7.00" y="115" class="muted" font-size="10">Mar</text><line x1="112.43" y1="122" x2="112.43" y2="196" class="grid" stroke-width="1" stroke-dasharray="2 4"/><text x="115.43" y="115" class="muted" font-size="10">Apr</text><line x1="217.36" y1="122" x2="217.36" y2="196" class="grid" stroke-width="1" stroke-dasharray="2 4"/><text x="220.36" y="115" class="muted" font-size="10">May</text><line x1="325.79" y1="122" x2="325.79" y2="196" class="grid" stroke-width="1" stroke-dasharray="2 4"/><text x="328.79" y="115" class="muted" font-size="10">Jun</text><line x1="430.72" y1="122" x2="430.72" y2="196" class="grid" stroke-width="1" stroke-dasharray="2 4"/><text x="433.72" y="115" class="muted" font-size="10">Jul</text><line x1="539.14" y1="122" x2="539.14" y2="196" class="grid" stroke-width="1" stroke-dasharray="2 4"/><text x="542.14" y="115" class="muted" font-size="10">Aug</text><line x1="647.57" y1="122" x2="647.57" y2="196" class="grid" stroke-width="1" stroke-dasharray="2 4"/><text x="650.57" y="115" class="muted" font-size="10">Sep</text><line x1="752.50" y1="122" x2="752.50" y2="196" class="grid" stroke-width="1" stroke-dasharray="2 4"/><text x="755.50" y="115" class="muted" font-size="10">Oct</text><g><title>2026-03-16: 7 contributions</title><line x1="56.47" y1="196" x2="56.47" y2="175.70" class="stem" stroke-width="1.35" stroke-linecap="round"/><circle cx="56.47" cy="175.70" r="2.09" class="dot"/></g><g><title>2026-05-19: 14 contributions</title><line x1="280.32" y1="196" x2="280.32" y2="167.29" class="stem" stroke-width="1.35" stroke-linecap="round"/><circle cx="280.32" cy="167.29" r="2.30" class="dot"/></g><g><title>2026-05-21: 30 contributions</title><line x1="287.31" y1="196" x2="287.31" y2="153.97" class="stem" stroke-width="1.35" stroke-linecap="round"/><circle cx="287.31" cy="153.97" r="2.62" class="dot"/></g><g><title>2026-07-10: 25 contributions</title><line x1="462.20" y1="196" x2="462.20" y2="157.63" class="stem" stroke-width="1.35" stroke-linecap="round"/><circle cx="462.20" cy="157.63" r="2.53" class="dot"/></g><g><title>2026-07-13: 2 contributions</title><line x1="472.69" y1="196" x2="472.69" y2="185.15" class="stem" stroke-width="1.35" stroke-linecap="round"/><circle cx="472.69" cy="185.15" r="1.86" class="dot"/></g><g><title>2026-07-14: 36 contributions</title><line x1="476.19" y1="196" x2="476.19" y2="149.96" class="stem" stroke-width="1.35" stroke-linecap="round"/><circle cx="476.19" cy="149.96" r="2.72" class="dot"/></g><g><title>2026-07-22: 46 contributions</title><line x1="504.17" y1="196" x2="504.17" y2="143.96" class="stem" stroke-width="1.35" stroke-linecap="round"/><circle cx="504.17" cy="143.96" r="2.87" class="dot"/></g><g><title>2026-07-23: 11 contributions</title><line x1="507.67" y1="196" x2="507.67" y2="170.55" class="stem" stroke-width="1.35" stroke-linecap="round"/><circle cx="507.67" cy="170.55" r="2.22" class="dot"/></g><g><title>2026-07-24: 25 contributions</title><line x1="511.16" y1="196" x2="511.16" y2="157.63" class="stem" stroke-width="1.35" stroke-linecap="round"/><circle cx="511.16" cy="157.63" r="2.53" class="dot"/></g><g><title>2026-08-12: 8 contributions</title><line x1="577.62" y1="196" x2="577.62" y2="174.30" class="stem" stroke-width="1.35" stroke-linecap="round"/><circle cx="577.62" cy="174.30" r="2.13" class="dot"/></g><g><title>2026-08-13: 12 contributions</title><line x1="581.12" y1="196" x2="581.12" y2="169.42" class="stem" stroke-width="1.35" stroke-linecap="round"/><circle cx="581.12" cy="169.42" r="2.25" class="dot"/></g><g><title>2026-08-14: 8 contributions</title><line x1="584.61" y1="196" x2="584.61" y2="174.30" class="stem" stroke-width="1.35" stroke-linecap="round"/><circle cx="584.61" cy="174.30" r="2.13" class="dot"/></g><g><title>2026-08-15: 37 contributions</title><line x1="588.11" y1="196" x2="588.11" y2="149.32" class="stem" stroke-width="1.35" stroke-linecap="round"/><circle cx="588.11" cy="149.32" r="2.74" class="dot"/></g><g><title>2026-08-16: 36 contributions</title><line x1="591.61" y1="196" x2="591.61" y2="149.96" class="stem" stroke-width="1.35" stroke-linecap="round"/><circle cx="591.61" cy="149.96" r="2.72" class="dot"/></g><g><title>2026-08-17: 74 contributions</title><line x1="595.11" y1="196" x2="595.11" y2="129.99" class="stem" stroke-width="1.35" stroke-linecap="round"/><circle cx="595.11" cy="129.99" r="3.21" class="dot"/></g><g><title>2026-08-18: 93 contributions</title><line x1="598.60" y1="196" x2="598.60" y2="122.00" class="stem" stroke-width="1.35" stroke-linecap="round"/><circle cx="598.60" cy="122.00" r="3.40" class="dot"/></g><g><title>2026-08-19: 1 contribution</title><line x1="602.10" y1="196" x2="602.10" y2="188.33" class="stem" stroke-width="1.35" stroke-linecap="round"/><circle cx="602.10" cy="188.33" r="1.79" class="dot"/></g><g><title>2026-08-20: 23 contributions</title><line x1="605.60" y1="196" x2="605.60" y2="159.20" class="stem" stroke-width="1.35" stroke-linecap="round"/><circle cx="605.60" cy="159.20" r="2.50" class="dot"/></g><g><title>2026-08-21: 75 contributions</title><line x1="609.10" y1="196" x2="609.10" y2="129.55" class="stem" stroke-width="1.35" stroke-linecap="round"/><circle cx="609.10" cy="129.55" r="3.22" class="dot"/></g><g><title>2026-08-22: 35 contributions</title><line x1="612.60" y1="196" x2="612.60" y2="150.60" class="stem" stroke-width="1.35" stroke-linecap="round"/><circle cx="612.60" cy="150.60" r="2.70" class="dot"/></g><g><title>2026-08-23: 38 contributions</title><line x1="616.09" y1="196" x2="616.09" y2="148.70" class="stem" stroke-width="1.35" stroke-linecap="round"/><circle cx="616.09" cy="148.70" r="2.75" class="dot"/></g><g><title>2026-08-24: 43 contributions</title><line x1="619.59" y1="196" x2="619.59" y2="145.68" class="stem" stroke-width="1.35" stroke-linecap="round"/><circle cx="619.59" cy="145.68" r="2.82" class="dot"/></g><g><title>2026-08-25: 38 contributions</title><line x1="623.09" y1="196" x2="623.09" y2="148.70" class="stem" stroke-width="1.35" stroke-linecap="round"/><circle cx="623.09" cy="148.70" r="2.75" class="dot"/></g><g><title>2026-08-26: 15 contributions</title><line x1="626.59" y1="196" x2="626.59" y2="166.28" class="stem" stroke-width="1.35" stroke-linecap="round"/><circle cx="626.59" cy="166.28" r="2.32" class="dot"/></g><g><title>2026-08-27: 10 contributions</title><line x1="630.08" y1="196" x2="630.08" y2="171.73" class="stem" stroke-width="1.35" stroke-linecap="round"/><circle cx="630.08" cy="171.73" r="2.19" class="dot"/></g><g><title>2026-08-28: 17 contributions</title><line x1="633.58" y1="196" x2="633.58" y2="164.36" class="stem" stroke-width="1.35" stroke-linecap="round"/><circle cx="633.58" cy="164.36" r="2.37" class="dot"/></g><g><title>2026-08-31: 16 contributions</title><line x1="644.07" y1="196" x2="644.07" y2="165.31" class="stem" stroke-width="1.35" stroke-linecap="round"/><circle cx="644.07" cy="165.31" r="2.35" class="dot"/></g><g><title>2026-09-01: 7 contributions</title><line x1="647.57" y1="196" x2="647.57" y2="175.70" class="stem" stroke-width="1.35" stroke-linecap="round"/><circle cx="647.57" cy="175.70" r="2.09" class="dot"/></g><g><title>2026-09-02: 9 contributions</title><line x1="651.07" y1="196" x2="651.07" y2="172.98" class="stem" stroke-width="1.35" stroke-linecap="round"/><circle cx="651.07" cy="172.98" r="2.16" class="dot"/></g><g><title>2026-09-04: 20 contributions</title><line x1="658.07" y1="196" x2="658.07" y2="161.68" class="stem" stroke-width="1.35" stroke-linecap="round"/><circle cx="658.07" cy="161.68" r="2.43" class="dot"/></g><g><title>2026-09-05: 16 contributions</title><line x1="661.56" y1="196" x2="661.56" y2="165.31" class="stem" stroke-width="1.35" stroke-linecap="round"/><circle cx="661.56" cy="165.31" r="2.35" class="dot"/></g><g><title>2026-09-06: 46 contributions</title><line x1="665.06" y1="196" x2="665.06" y2="143.96" class="stem" stroke-width="1.35" stroke-linecap="round"/><circle cx="665.06" cy="143.96" r="2.87" class="dot"/></g><g><title>2026-09-07: 20 contributions</title><line x1="668.56" y1="196" x2="668.56" y2="161.68" class="stem" stroke-width="1.35" stroke-linecap="round"/><circle cx="668.56" cy="161.68" r="2.43" class="dot"/></g><g><title>2026-09-08: 25 contributions</title><line x1="672.06" y1="196" x2="672.06" y2="157.63" class="stem" stroke-width="1.35" stroke-linecap="round"/><circle cx="672.06" cy="157.63" r="2.53" class="dot"/></g><g><title>2026-09-09: 3 contributions</title><line x1="675.55" y1="196" x2="675.55" y2="182.71" class="stem" stroke-width="1.35" stroke-linecap="round"/><circle cx="675.55" cy="182.71" r="1.92" class="dot"/></g><g><title>2026-09-10: 34 contributions</title><line x1="679.05" y1="196" x2="679.05" y2="151.26" class="stem" stroke-width="1.35" stroke-linecap="round"/><circle cx="679.05" cy="151.26" r="2.69" class="dot"/></g><g><title>2026-09-11: 3 contributions</title><line x1="682.55" y1="196" x2="682.55" y2="182.71" class="stem" stroke-width="1.35" stroke-linecap="round"/><circle cx="682.55" cy="182.71" r="1.92" class="dot"/></g><g><title>2026-09-12: 7 contributions</title><line x1="686.05" y1="196" x2="686.05" y2="175.70" class="stem" stroke-width="1.35" stroke-linecap="round"/><circle cx="686.05" cy="175.70" r="2.09" class="dot"/></g><g><title>2026-09-13: 7 contributions</title><line x1="689.54" y1="196" x2="689.54" y2="175.70" class="stem" stroke-width="1.35" stroke-linecap="round"/><circle cx="689.54" cy="175.70" r="2.09" class="dot"/></g><g><title>2026-09-14: 9 contributions</title><line x1="693.04" y1="196" x2="693.04" y2="172.98" class="stem" stroke-width="1.35" stroke-linecap="round"/><circle cx="693.04" cy="172.98" r="2.16" class="dot"/></g><g><title>2026-09-15: 8 contributions</title><line x1="696.54" y1="196" x2="696.54" y2="174.30" class="stem" stroke-width="1.35" stroke-linecap="round"/><circle cx="696.54" cy="174.30" r="2.13" class="dot"/></g><g><title>2026-09-16: 8 contributions</title><line x1="700.04" y1="196" x2="700.04" y2="174.30" class="stem" stroke-width="1.35" stroke-linecap="round"/><circle cx="700.04" cy="174.30" r="2.13" class="dot"/></g><g><title>2026-09-17: 1 contribution</title><line x1="703.53" y1="196" x2="703.53" y2="188.33" class="stem" stroke-width="1.35" stroke-linecap="round"/><circle cx="703.53" cy="188.33" r="1.79" class="dot"/></g><g><title>2026-09-19: 17 contributions</title><line x1="710.53" y1="196" x2="710.53" y2="164.36" class="stem" stroke-width="1.35" stroke-linecap="round"/><circle cx="710.53" cy="164.36" r="2.37" class="dot"/></g><g><title>2026-09-20: 5 contributions</title><line x1="714.03" y1="196" x2="714.03" y2="178.84" class="stem" stroke-width="1.35" stroke-linecap="round"/><circle cx="714.03" cy="178.84" r="2.02" class="dot"/></g><g><title>2026-09-21: 10 contributions</title><line x1="717.53" y1="196" x2="717.53" y2="171.73" class="stem" stroke-width="1.35" stroke-linecap="round"/><circle cx="717.53" cy="171.73" r="2.19" class="dot"/></g><g><title>2026-09-22: 3 contributions</title><line x1="721.02" y1="196" x2="721.02" y2="182.71" class="stem" stroke-width="1.35" stroke-linecap="round"/><circle cx="721.02" cy="182.71" r="1.92" class="dot"/></g><g><title>2026-09-28: 1 contribution</title><line x1="742.01" y1="196" x2="742.01" y2="188.33" class="stem" stroke-width="1.35" stroke-linecap="round"/><circle cx="742.01" cy="188.33" r="1.79" class="dot"/></g></svg>