<svg xmlns="http://www.w3.org/2000/svg" width="760" height="220" viewBox="0 0 760 220" role="img" aria-labelledby="title desc"><title id="title">800 contributions in 2026</title><desc id="desc">33 active days, peak month 577 (Aug), peak week 336, and peak day 93. Daily chart begins Mar 2026.</desc><style>:root{color-scheme:light dark}.bg{fill:#fff}.ink{fill:#1f2328}.muted{fill:#656d76}.line{stroke:#8c959f}.bar{fill:#8c959f}.stem{stroke:#8c959f}.dot{fill:#1f2328}.grid{stroke:#d8dee4}.track{fill:#eaeef2}@media(prefers-color-scheme:dark){.bg{fill:#0d1117}.ink{fill:#f0f6fc}.muted{fill:#8b949e}.line{stroke:#c9d1d9}.bar{fill:#c9d1d9}.stem{stroke:#8b949e}.dot{fill:#f0f6fc}.grid{stroke:#30363d}.track{fill:#30363d}}text{font-family:ui-monospace,SFMono-Regular,Menlo,Consolas,"Liberation Mono",monospace}</style><rect class="bg" width="760" height="220"/><text x="4" y="52" class="ink" font-size="54" font-weight="600">800</text><text x="4" y="78" class="muted" font-size="13">contributions in 2026</text><text x="392" y="42" class="ink" font-size="22" font-weight="600" text-anchor="middle">33</text><text x="392" y="63" class="muted" font-size="9.5" text-anchor="middle">active days</text><text x="483" y="42" class="ink" font-size="22" font-weight="600" text-anchor="middle">577</text><text x="483" y="63" class="muted" font-size="9.5" text-anchor="middle">peak month</text><text x="483" y="79" class="muted" font-size="9" text-anchor="middle">Aug</text><text x="574" y="42" class="ink" font-size="22" font-weight="600" text-anchor="middle">336</text><text x="574" y="63" class="muted" font-size="9.5" text-anchor="middle">peak week</text><text x="665" y="42" class="ink" font-size="22" font-weight="600" text-anchor="middle">93</text><text x="665" y="63" class="muted" font-size="9.5" text-anchor="middle">peak day</text><line x1="4" y1="196" x2="756" y2="196" class="grid" stroke-width="1"/><text x="7.00" y="115" class="muted" font-size="10">Mar</text><line x1="127.34" y1="122" x2="127.34" y2="196" class="grid" stroke-width="1" stroke-dasharray="2 4"/><text x="130.34" y="115" class="muted" font-size="10">Apr</text><line x1="246.71" y1="122" x2="246.71" y2="196" class="grid" stroke-width="1" stroke-dasharray="2 4"/><text x="249.71" y="115" class="muted" font-size="10">May</text><line x1="370.05" y1="122" x2="370.05" y2="196" class="grid" stroke-width="1" stroke-dasharray="2 4"/><text x="373.05" y="115" class="muted" font-size="10">Jun</text><line x1="489.42" y1="122" x2="489.42" y2="196" class="grid" stroke-width="1" stroke-dasharray="2 4"/><text x="492.42" y="115" class="muted" font-size="10">Jul</text><line x1="612.76" y1="122" x2="612.76" y2="196" class="grid" stroke-width="1" stroke-dasharray="2 4"/><text x="615.76" y="115" class="muted" font-size="10">Aug</text><line x1="736.11" y1="122" x2="736.11" y2="196" class="grid" stroke-width="1" stroke-dasharray="2 4"/><text x="739.11" y="115" class="muted" font-size="10">Sep</text><g><title>2026-03-16: 7 contributions</title><line x1="63.68" y1="196" x2="63.68" y2="175.70" class="stem" stroke-width="1.35" stroke-linecap="round"/><circle cx="63.68" cy="175.70" r="2.09" class="dot"/></g><g><title>2026-05-19: 15 contributions</title><line x1="318.33" y1="196" x2="318.33" y2="166.28" class="stem" stroke-width="1.35" stroke-linecap="round"/><circle cx="318.33" cy="166.28" r="2.32" class="dot"/></g><g><title>2026-05-21: 15 contributions</title><line x1="326.29" y1="196" x2="326.29" y2="166.28" class="stem" stroke-width="1.35" stroke-linecap="round"/><circle cx="326.29" cy="166.28" r="2.32" class="dot"/></g><g><title>2026-07-10: 25 contributions</title><line x1="525.23" y1="196" x2="525.23" y2="157.63" class="stem" stroke-width="1.35" stroke-linecap="round"/><circle cx="525.23" cy="157.63" r="2.53" class="dot"/></g><g><title>2026-07-13: 2 contributions</title><line x1="537.16" y1="196" x2="537.16" y2="185.15" class="stem" stroke-width="1.35" stroke-linecap="round"/><circle cx="537.16" cy="185.15" r="1.86" class="dot"/></g><g><title>2026-07-14: 36 contributions</title><line x1="541.14" y1="196" x2="541.14" y2="149.96" class="stem" stroke-width="1.35" stroke-linecap="round"/><circle cx="541.14" cy="149.96" r="2.72" class="dot"/></g><g><title>2026-07-22: 23 contributions</title><line x1="572.97" y1="196" x2="572.97" y2="159.20" class="stem" stroke-width="1.35" stroke-linecap="round"/><circle cx="572.97" cy="159.20" r="2.50" class="dot"/></g><g><title>2026-07-23: 8 contributions</title><line x1="576.95" y1="196" x2="576.95" y2="174.30" class="stem" stroke-width="1.35" stroke-linecap="round"/><circle cx="576.95" cy="174.30" r="2.13" class="dot"/></g><g><title>2026-07-24: 19 contributions</title><line x1="580.93" y1="196" x2="580.93" y2="162.55" class="stem" stroke-width="1.35" stroke-linecap="round"/><circle cx="580.93" cy="162.55" r="2.41" class="dot"/></g><g><title>2026-08-12: 7 contributions</title><line x1="656.53" y1="196" x2="656.53" y2="175.70" class="stem" stroke-width="1.35" stroke-linecap="round"/><circle cx="656.53" cy="175.70" r="2.09" class="dot"/></g><g><title>2026-08-13: 13 contributions</title><line x1="660.51" y1="196" x2="660.51" y2="168.33" class="stem" stroke-width="1.35" stroke-linecap="round"/><circle cx="660.51" cy="168.33" r="2.27" class="dot"/></g><g><title>2026-08-14: 7 contributions</title><line x1="664.49" y1="196" x2="664.49" y2="175.70" class="stem" stroke-width="1.35" stroke-linecap="round"/><circle cx="664.49" cy="175.70" r="2.09" class="dot"/></g><g><title>2026-08-15: 37 contributions</title><line x1="668.47" y1="196" x2="668.47" y2="149.32" class="stem" stroke-width="1.35" stroke-linecap="round"/><circle cx="668.47" cy="149.32" r="2.74" class="dot"/></g><g><title>2026-08-16: 37 contributions</title><line x1="672.44" y1="196" x2="672.44" y2="149.32" class="stem" stroke-width="1.35" stroke-linecap="round"/><circle cx="672.44" cy="149.32" r="2.74" class="dot"/></g><g><title>2026-08-17: 73 contributions</title><line x1="676.42" y1="196" x2="676.42" y2="130.44" class="stem" stroke-width="1.35" stroke-linecap="round"/><circle cx="676.42" cy="130.44" r="3.19" class="dot"/></g><g><title>2026-08-18: 93 contributions</title><line x1="680.40" y1="196" x2="680.40" y2="122.00" class="stem" stroke-width="1.35" stroke-linecap="round"/><circle cx="680.40" cy="122.00" r="3.40" class="dot"/></g><g><title>2026-08-19: 1 contribution</title><line x1="684.38" y1="196" x2="684.38" y2="188.33" class="stem" stroke-width="1.35" stroke-linecap="round"/><circle cx="684.38" cy="188.33" r="1.79" class="dot"/></g><g><title>2026-08-20: 25 contributions</title><line x1="688.36" y1="196" x2="688.36" y2="157.63" class="stem" stroke-width="1.35" stroke-linecap="round"/><circle cx="688.36" cy="157.63" r="2.53" class="dot"/></g><g><title>2026-08-21: 75 contributions</title><line x1="692.34" y1="196" x2="692.34" y2="129.55" class="stem" stroke-width="1.35" stroke-linecap="round"/><circle cx="692.34" cy="129.55" r="3.22" class="dot"/></g><g><title>2026-08-22: 32 contributions</title><line x1="696.32" y1="196" x2="696.32" y2="152.59" class="stem" stroke-width="1.35" stroke-linecap="round"/><circle cx="696.32" cy="152.59" r="2.66" class="dot"/></g><g><title>2026-08-23: 37 contributions</title><line x1="700.30" y1="196" x2="700.30" y2="149.32" class="stem" stroke-width="1.35" stroke-linecap="round"/><circle cx="700.30" cy="149.32" r="2.74" class="dot"/></g><g><title>2026-08-24: 44 contributions</title><line x1="704.28" y1="196" x2="704.28" y2="145.10" class="stem" stroke-width="1.35" stroke-linecap="round"/><circle cx="704.28" cy="145.10" r="2.84" class="dot"/></g><g><title>2026-08-25: 37 contributions</title><line x1="708.25" y1="196" x2="708.25" y2="149.32" class="stem" stroke-width="1.35" stroke-linecap="round"/><circle cx="708.25" cy="149.32" r="2.74" class="dot"/></g><g><title>2026-08-26: 16 contributions</title><line x1="712.23" y1="196" x2="712.23" y2="165.31" class="stem" stroke-width="1.35" stroke-linecap="round"/><circle cx="712.23" cy="165.31" r="2.35" class="dot"/></g><g><title>2026-08-27: 9 contributions</title><line x1="716.21" y1="196" x2="716.21" y2="172.98" class="stem" stroke-width="1.35" stroke-linecap="round"/><circle cx="716.21" cy="172.98" r="2.16" class="dot"/></g><g><title>2026-08-28: 17 contributions</title><line x1="720.19" y1="196" x2="720.19" y2="164.36" class="stem" stroke-width="1.35" stroke-linecap="round"/><circle cx="720.19" cy="164.36" r="2.37" class="dot"/></g><g><title>2026-08-31: 17 contributions</title><line x1="732.13" y1="196" x2="732.13" y2="164.36" class="stem" stroke-width="1.35" stroke-linecap="round"/><circle cx="732.13" cy="164.36" r="2.37" class="dot"/></g><g><title>2026-09-01: 8 contributions</title><line x1="736.11" y1="196" x2="736.11" y2="174.30" class="stem" stroke-width="1.35" stroke-linecap="round"/><circle cx="736.11" cy="174.30" r="2.13" class="dot"/></g><g><title>2026-09-02: 7 contributions</title><line x1="740.08" y1="196" x2="740.08" y2="175.70" class="stem" stroke-width="1.35" stroke-linecap="round"/><circle cx="740.08" cy="175.70" r="2.09" class="dot"/></g><g><title>2026-09-04: 19 contributions</title><line x1="748.04" y1="196" x2="748.04" y2="162.55" class="stem" stroke-width="1.35" stroke-linecap="round"/><circle cx="748.04" cy="162.55" r="2.41" class="dot"/></g><g><title>2026-09-05: 15 contributions</title><line x1="752.02" y1="196" x2="752.02" y2="166.28" class="stem" stroke-width="1.35" stroke-linecap="round"/><circle cx="752.02" cy="166.28" r="2.32" class="dot"/></g><g><title>2026-09-06: 23 contributions</title><line x1="756.00" y1="196" x2="756.00" y2="159.20" class="stem" stroke-width="1.35" stroke-linecap="round"/><circle cx="756.00" cy="159.20" r="2.50" class="dot"/></g></svg>