<svg xmlns="http://www.w3.org/2000/svg" width="760" height="220" viewBox="0 0 760 220" role="img" aria-labelledby="title desc"><title id="title">871 contributions in 2026</title><desc id="desc">36 active days, peak month 577 (Aug), peak week 336, and peak day 93. Daily chart begins Mar 2026.</desc><style>:root{color-scheme:light dark}.bg{fill:#fff}.ink{fill:#1f2328}.muted{fill:#656d76}.line{stroke:#8c959f}.bar{fill:#8c959f}.stem{stroke:#8c959f}.dot{fill:#1f2328}.grid{stroke:#d8dee4}.track{fill:#eaeef2}@media(prefers-color-scheme:dark){.bg{fill:#0d1117}.ink{fill:#f0f6fc}.muted{fill:#8b949e}.line{stroke:#c9d1d9}.bar{fill:#c9d1d9}.stem{stroke:#8b949e}.dot{fill:#f0f6fc}.grid{stroke:#30363d}.track{fill:#30363d}}text{font-family:ui-monospace,SFMono-Regular,Menlo,Consolas,"Liberation Mono",monospace}</style><rect class="bg" width="760" height="220"/><text x="4" y="52" class="ink" font-size="54" font-weight="600">871</text><text x="4" y="78" class="muted" font-size="13">contributions in 2026</text><text x="392" y="42" class="ink" font-size="22" font-weight="600" text-anchor="middle">36</text><text x="392" y="63" class="muted" font-size="9.5" text-anchor="middle">active days</text><text x="483" y="42" class="ink" font-size="22" font-weight="600" text-anchor="middle">577</text><text x="483" y="63" class="muted" font-size="9.5" text-anchor="middle">peak month</text><text x="483" y="79" class="muted" font-size="9" text-anchor="middle">Aug</text><text x="574" y="42" class="ink" font-size="22" font-weight="600" text-anchor="middle">336</text><text x="574" y="63" class="muted" font-size="9.5" text-anchor="middle">peak week</text><text x="665" y="42" class="ink" font-size="22" font-weight="600" text-anchor="middle">93</text><text x="665" y="63" class="muted" font-size="9.5" text-anchor="middle">peak day</text><line x1="4" y1="196" x2="756" y2="196" class="grid" stroke-width="1"/><text x="7.00" y="115" class="muted" font-size="10">Mar</text><line x1="124.79" y1="122" x2="124.79" y2="196" class="grid" stroke-width="1" stroke-dasharray="2 4"/><text x="127.79" y="115" class="muted" font-size="10">Apr</text><line x1="241.68" y1="122" x2="241.68" y2="196" class="grid" stroke-width="1" stroke-dasharray="2 4"/><text x="244.68" y="115" class="muted" font-size="10">May</text><line x1="362.47" y1="122" x2="362.47" y2="196" class="grid" stroke-width="1" stroke-dasharray="2 4"/><text x="365.47" y="115" class="muted" font-size="10">Jun</text><line x1="479.36" y1="122" x2="479.36" y2="196" class="grid" stroke-width="1" stroke-dasharray="2 4"/><text x="482.36" y="115" class="muted" font-size="10">Jul</text><line x1="600.15" y1="122" x2="600.15" y2="196" class="grid" stroke-width="1" stroke-dasharray="2 4"/><text x="603.15" y="115" class="muted" font-size="10">Aug</text><line x1="720.93" y1="122" x2="720.93" y2="196" class="grid" stroke-width="1" stroke-dasharray="2 4"/><text x="723.93" y="115" class="muted" font-size="10">Sep</text><g><title>2026-03-16: 7 contributions</title><line x1="62.45" y1="196" x2="62.45" y2="175.70" class="stem" stroke-width="1.35" stroke-linecap="round"/><circle cx="62.45" cy="175.70" r="2.09" class="dot"/></g><g><title>2026-05-19: 15 contributions</title><line x1="311.81" y1="196" x2="311.81" y2="166.28" class="stem" stroke-width="1.35" stroke-linecap="round"/><circle cx="311.81" cy="166.28" r="2.32" class="dot"/></g><g><title>2026-05-21: 15 contributions</title><line x1="319.61" y1="196" x2="319.61" y2="166.28" class="stem" stroke-width="1.35" stroke-linecap="round"/><circle cx="319.61" cy="166.28" r="2.32" class="dot"/></g><g><title>2026-07-10: 25 contributions</title><line x1="514.42" y1="196" x2="514.42" y2="157.63" class="stem" stroke-width="1.35" stroke-linecap="round"/><circle cx="514.42" cy="157.63" r="2.53" class="dot"/></g><g><title>2026-07-13: 2 contributions</title><line x1="526.11" y1="196" x2="526.11" y2="185.15" class="stem" stroke-width="1.35" stroke-linecap="round"/><circle cx="526.11" cy="185.15" r="1.86" class="dot"/></g><g><title>2026-07-14: 36 contributions</title><line x1="530.01" y1="196" x2="530.01" y2="149.96" class="stem" stroke-width="1.35" stroke-linecap="round"/><circle cx="530.01" cy="149.96" r="2.72" class="dot"/></g><g><title>2026-07-22: 23 contributions</title><line x1="561.18" y1="196" x2="561.18" y2="159.20" class="stem" stroke-width="1.35" stroke-linecap="round"/><circle cx="561.18" cy="159.20" r="2.50" class="dot"/></g><g><title>2026-07-23: 8 contributions</title><line x1="565.08" y1="196" x2="565.08" y2="174.30" class="stem" stroke-width="1.35" stroke-linecap="round"/><circle cx="565.08" cy="174.30" r="2.13" class="dot"/></g><g><title>2026-07-24: 19 contributions</title><line x1="568.97" y1="196" x2="568.97" y2="162.55" class="stem" stroke-width="1.35" stroke-linecap="round"/><circle cx="568.97" cy="162.55" r="2.41" class="dot"/></g><g><title>2026-08-12: 7 contributions</title><line x1="643.01" y1="196" x2="643.01" y2="175.70" class="stem" stroke-width="1.35" stroke-linecap="round"/><circle cx="643.01" cy="175.70" r="2.09" class="dot"/></g><g><title>2026-08-13: 13 contributions</title><line x1="646.90" y1="196" x2="646.90" y2="168.33" class="stem" stroke-width="1.35" stroke-linecap="round"/><circle cx="646.90" cy="168.33" r="2.27" class="dot"/></g><g><title>2026-08-14: 7 contributions</title><line x1="650.80" y1="196" x2="650.80" y2="175.70" class="stem" stroke-width="1.35" stroke-linecap="round"/><circle cx="650.80" cy="175.70" r="2.09" class="dot"/></g><g><title>2026-08-15: 37 contributions</title><line x1="654.69" y1="196" x2="654.69" y2="149.32" class="stem" stroke-width="1.35" stroke-linecap="round"/><circle cx="654.69" cy="149.32" r="2.74" class="dot"/></g><g><title>2026-08-16: 37 contributions</title><line x1="658.59" y1="196" x2="658.59" y2="149.32" class="stem" stroke-width="1.35" stroke-linecap="round"/><circle cx="658.59" cy="149.32" r="2.74" class="dot"/></g><g><title>2026-08-17: 73 contributions</title><line x1="662.49" y1="196" x2="662.49" y2="130.44" class="stem" stroke-width="1.35" stroke-linecap="round"/><circle cx="662.49" cy="130.44" r="3.19" class="dot"/></g><g><title>2026-08-18: 93 contributions</title><line x1="666.38" y1="196" x2="666.38" y2="122.00" class="stem" stroke-width="1.35" stroke-linecap="round"/><circle cx="666.38" cy="122.00" r="3.40" class="dot"/></g><g><title>2026-08-19: 1 contribution</title><line x1="670.28" y1="196" x2="670.28" y2="188.33" class="stem" stroke-width="1.35" stroke-linecap="round"/><circle cx="670.28" cy="188.33" r="1.79" class="dot"/></g><g><title>2026-08-20: 25 contributions</title><line x1="674.18" y1="196" x2="674.18" y2="157.63" class="stem" stroke-width="1.35" stroke-linecap="round"/><circle cx="674.18" cy="157.63" r="2.53" class="dot"/></g><g><title>2026-08-21: 75 contributions</title><line x1="678.07" y1="196" x2="678.07" y2="129.55" class="stem" stroke-width="1.35" stroke-linecap="round"/><circle cx="678.07" cy="129.55" r="3.22" class="dot"/></g><g><title>2026-08-22: 32 contributions</title><line x1="681.97" y1="196" x2="681.97" y2="152.59" class="stem" stroke-width="1.35" stroke-linecap="round"/><circle cx="681.97" cy="152.59" r="2.66" class="dot"/></g><g><title>2026-08-23: 37 contributions</title><line x1="685.87" y1="196" x2="685.87" y2="149.32" class="stem" stroke-width="1.35" stroke-linecap="round"/><circle cx="685.87" cy="149.32" r="2.74" class="dot"/></g><g><title>2026-08-24: 44 contributions</title><line x1="689.76" y1="196" x2="689.76" y2="145.10" class="stem" stroke-width="1.35" stroke-linecap="round"/><circle cx="689.76" cy="145.10" r="2.84" class="dot"/></g><g><title>2026-08-25: 37 contributions</title><line x1="693.66" y1="196" x2="693.66" y2="149.32" class="stem" stroke-width="1.35" stroke-linecap="round"/><circle cx="693.66" cy="149.32" r="2.74" class="dot"/></g><g><title>2026-08-26: 16 contributions</title><line x1="697.55" y1="196" x2="697.55" y2="165.31" class="stem" stroke-width="1.35" stroke-linecap="round"/><circle cx="697.55" cy="165.31" r="2.35" class="dot"/></g><g><title>2026-08-27: 9 contributions</title><line x1="701.45" y1="196" x2="701.45" y2="172.98" class="stem" stroke-width="1.35" stroke-linecap="round"/><circle cx="701.45" cy="172.98" r="2.16" class="dot"/></g><g><title>2026-08-28: 17 contributions</title><line x1="705.35" y1="196" x2="705.35" y2="164.36" class="stem" stroke-width="1.35" stroke-linecap="round"/><circle cx="705.35" cy="164.36" r="2.37" class="dot"/></g><g><title>2026-08-31: 17 contributions</title><line x1="717.04" y1="196" x2="717.04" y2="164.36" class="stem" stroke-width="1.35" stroke-linecap="round"/><circle cx="717.04" cy="164.36" r="2.37" class="dot"/></g><g><title>2026-09-01: 8 contributions</title><line x1="720.93" y1="196" x2="720.93" y2="174.30" class="stem" stroke-width="1.35" stroke-linecap="round"/><circle cx="720.93" cy="174.30" r="2.13" class="dot"/></g><g><title>2026-09-02: 7 contributions</title><line x1="724.83" y1="196" x2="724.83" y2="175.70" class="stem" stroke-width="1.35" stroke-linecap="round"/><circle cx="724.83" cy="175.70" r="2.09" class="dot"/></g><g><title>2026-09-04: 19 contributions</title><line x1="732.62" y1="196" x2="732.62" y2="162.55" class="stem" stroke-width="1.35" stroke-linecap="round"/><circle cx="732.62" cy="162.55" r="2.41" class="dot"/></g><g><title>2026-09-05: 15 contributions</title><line x1="736.52" y1="196" x2="736.52" y2="166.28" class="stem" stroke-width="1.35" stroke-linecap="round"/><circle cx="736.52" cy="166.28" r="2.32" class="dot"/></g><g><title>2026-09-06: 48 contributions</title><line x1="740.41" y1="196" x2="740.41" y2="142.84" class="stem" stroke-width="1.35" stroke-linecap="round"/><circle cx="740.41" cy="142.84" r="2.89" class="dot"/></g><g><title>2026-09-07: 21 contributions</title><line x1="744.31" y1="196" x2="744.31" y2="160.84" class="stem" stroke-width="1.35" stroke-linecap="round"/><circle cx="744.31" cy="160.84" r="2.46" class="dot"/></g><g><title>2026-09-08: 22 contributions</title><line x1="748.21" y1="196" x2="748.21" y2="160.01" class="stem" stroke-width="1.35" stroke-linecap="round"/><circle cx="748.21" cy="160.01" r="2.48" class="dot"/></g><g><title>2026-09-09: 3 contributions</title><line x1="752.10" y1="196" x2="752.10" y2="182.71" class="stem" stroke-width="1.35" stroke-linecap="round"/><circle cx="752.10" cy="182.71" r="1.92" class="dot"/></g></svg>