<svg xmlns="http://www.w3.org/2000/svg" width="760" height="220" viewBox="0 0 760 220" role="img" aria-labelledby="title desc"><title id="title">1034 contributions in 2026</title><desc id="desc">48 active days, peak month 579 (Aug), peak week 337, and peak day 93. Daily chart begins Mar 2026.</desc><style>:root{color-scheme:light dark}.bg{fill:#fff}.ink{fill:#1f2328}.muted{fill:#656d76}.line{stroke:#8c959f}.bar{fill:#8c959f}.stem{stroke:#8c959f}.dot{fill:#1f2328}.grid{stroke:#d8dee4}.track{fill:#eaeef2}@media(prefers-color-scheme:dark){.bg{fill:#0d1117}.ink{fill:#f0f6fc}.muted{fill:#8b949e}.line{stroke:#c9d1d9}.bar{fill:#c9d1d9}.stem{stroke:#8b949e}.dot{fill:#f0f6fc}.grid{stroke:#30363d}.track{fill:#30363d}}text{font-family:ui-monospace,SFMono-Regular,Menlo,Consolas,"Liberation Mono",monospace}</style><rect class="bg" width="760" height="220"/><text x="4" y="52" class="ink" font-size="54" font-weight="600">1034</text><text x="4" y="78" class="muted" font-size="13">contributions in 2026</text><text x="392" y="42" class="ink" font-size="22" font-weight="600" text-anchor="middle">48</text><text x="392" y="63" class="muted" font-size="9.5" text-anchor="middle">active days</text><text x="483" y="42" class="ink" font-size="22" font-weight="600" text-anchor="middle">579</text><text x="483" y="63" class="muted" font-size="9.5" text-anchor="middle">peak month</text><text x="483" y="79" class="muted" font-size="9" text-anchor="middle">Aug</text><text x="574" y="42" class="ink" font-size="22" font-weight="600" text-anchor="middle">337</text><text x="574" y="63" class="muted" font-size="9.5" text-anchor="middle">peak week</text><text x="665" y="42" class="ink" font-size="22" font-weight="600" text-anchor="middle">93</text><text x="665" y="63" class="muted" font-size="9.5" text-anchor="middle">peak day</text><line x1="4" y1="196" x2="756" y2="196" class="grid" stroke-width="1"/><text x="7.00" y="115" class="muted" font-size="10">Mar</text><line x1="115.01" y1="122" x2="115.01" y2="196" class="grid" stroke-width="1" stroke-dasharray="2 4"/><text x="118.01" y="115" class="muted" font-size="10">Apr</text><line x1="222.44" y1="122" x2="222.44" y2="196" class="grid" stroke-width="1" stroke-dasharray="2 4"/><text x="225.44" y="115" class="muted" font-size="10">May</text><line x1="333.45" y1="122" x2="333.45" y2="196" class="grid" stroke-width="1" stroke-dasharray="2 4"/><text x="336.45" y="115" class="muted" font-size="10">Jun</text><line x1="440.88" y1="122" x2="440.88" y2="196" class="grid" stroke-width="1" stroke-dasharray="2 4"/><text x="443.88" y="115" class="muted" font-size="10">Jul</text><line x1="551.89" y1="122" x2="551.89" y2="196" class="grid" stroke-width="1" stroke-dasharray="2 4"/><text x="554.89" y="115" class="muted" font-size="10">Aug</text><line x1="662.90" y1="122" x2="662.90" y2="196" class="grid" stroke-width="1" stroke-dasharray="2 4"/><text x="665.90" y="115" class="muted" font-size="10">Sep</text><g><title>2026-03-16: 7 contributions</title><line x1="57.71" y1="196" x2="57.71" y2="175.70" class="stem" stroke-width="1.35" stroke-linecap="round"/><circle cx="57.71" cy="175.70" r="2.09" class="dot"/></g><g><title>2026-05-19: 14 contributions</title><line x1="286.90" y1="196" x2="286.90" y2="167.29" class="stem" stroke-width="1.35" stroke-linecap="round"/><circle cx="286.90" cy="167.29" r="2.30" class="dot"/></g><g><title>2026-05-21: 30 contributions</title><line x1="294.06" y1="196" x2="294.06" y2="153.97" class="stem" stroke-width="1.35" stroke-linecap="round"/><circle cx="294.06" cy="153.97" r="2.62" class="dot"/></g><g><title>2026-07-10: 25 contributions</title><line x1="473.10" y1="196" x2="473.10" y2="157.63" class="stem" stroke-width="1.35" stroke-linecap="round"/><circle cx="473.10" cy="157.63" r="2.53" class="dot"/></g><g><title>2026-07-13: 2 contributions</title><line x1="483.85" y1="196" x2="483.85" y2="185.15" class="stem" stroke-width="1.35" stroke-linecap="round"/><circle cx="483.85" cy="185.15" r="1.86" class="dot"/></g><g><title>2026-07-14: 36 contributions</title><line x1="487.43" y1="196" x2="487.43" y2="149.96" class="stem" stroke-width="1.35" stroke-linecap="round"/><circle cx="487.43" cy="149.96" r="2.72" class="dot"/></g><g><title>2026-07-22: 46 contributions</title><line x1="516.08" y1="196" x2="516.08" y2="143.96" class="stem" stroke-width="1.35" stroke-linecap="round"/><circle cx="516.08" cy="143.96" r="2.87" class="dot"/></g><g><title>2026-07-23: 11 contributions</title><line x1="519.66" y1="196" x2="519.66" y2="170.55" class="stem" stroke-width="1.35" stroke-linecap="round"/><circle cx="519.66" cy="170.55" r="2.22" class="dot"/></g><g><title>2026-07-24: 25 contributions</title><line x1="523.24" y1="196" x2="523.24" y2="157.63" class="stem" stroke-width="1.35" stroke-linecap="round"/><circle cx="523.24" cy="157.63" r="2.53" class="dot"/></g><g><title>2026-08-12: 8 contributions</title><line x1="591.28" y1="196" x2="591.28" y2="174.30" class="stem" stroke-width="1.35" stroke-linecap="round"/><circle cx="591.28" cy="174.30" r="2.13" class="dot"/></g><g><title>2026-08-13: 12 contributions</title><line x1="594.86" y1="196" x2="594.86" y2="169.42" class="stem" stroke-width="1.35" stroke-linecap="round"/><circle cx="594.86" cy="169.42" r="2.25" class="dot"/></g><g><title>2026-08-14: 8 contributions</title><line x1="598.44" y1="196" x2="598.44" y2="174.30" class="stem" stroke-width="1.35" stroke-linecap="round"/><circle cx="598.44" cy="174.30" r="2.13" class="dot"/></g><g><title>2026-08-15: 37 contributions</title><line x1="602.02" y1="196" x2="602.02" y2="149.32" class="stem" stroke-width="1.35" stroke-linecap="round"/><circle cx="602.02" cy="149.32" r="2.74" class="dot"/></g><g><title>2026-08-16: 36 contributions</title><line x1="605.60" y1="196" x2="605.60" y2="149.96" class="stem" stroke-width="1.35" stroke-linecap="round"/><circle cx="605.60" cy="149.96" r="2.72" class="dot"/></g><g><title>2026-08-17: 74 contributions</title><line x1="609.18" y1="196" x2="609.18" y2="129.99" class="stem" stroke-width="1.35" stroke-linecap="round"/><circle cx="609.18" cy="129.99" r="3.21" class="dot"/></g><g><title>2026-08-18: 93 contributions</title><line x1="612.76" y1="196" x2="612.76" y2="122.00" class="stem" stroke-width="1.35" stroke-linecap="round"/><circle cx="612.76" cy="122.00" r="3.40" class="dot"/></g><g><title>2026-08-19: 1 contribution</title><line x1="616.34" y1="196" x2="616.34" y2="188.33" class="stem" stroke-width="1.35" stroke-linecap="round"/><circle cx="616.34" cy="188.33" r="1.79" class="dot"/></g><g><title>2026-08-20: 23 contributions</title><line x1="619.92" y1="196" x2="619.92" y2="159.20" class="stem" stroke-width="1.35" stroke-linecap="round"/><circle cx="619.92" cy="159.20" r="2.50" class="dot"/></g><g><title>2026-08-21: 75 contributions</title><line x1="623.50" y1="196" x2="623.50" y2="129.55" class="stem" stroke-width="1.35" stroke-linecap="round"/><circle cx="623.50" cy="129.55" r="3.22" class="dot"/></g><g><title>2026-08-22: 35 contributions</title><line x1="627.09" y1="196" x2="627.09" y2="150.60" class="stem" stroke-width="1.35" stroke-linecap="round"/><circle cx="627.09" cy="150.60" r="2.70" class="dot"/></g><g><title>2026-08-23: 38 contributions</title><line x1="630.67" y1="196" x2="630.67" y2="148.70" class="stem" stroke-width="1.35" stroke-linecap="round"/><circle cx="630.67" cy="148.70" r="2.75" class="dot"/></g><g><title>2026-08-24: 43 contributions</title><line x1="634.25" y1="196" x2="634.25" y2="145.68" class="stem" stroke-width="1.35" stroke-linecap="round"/><circle cx="634.25" cy="145.68" r="2.82" class="dot"/></g><g><title>2026-08-25: 38 contributions</title><line x1="637.83" y1="196" x2="637.83" y2="148.70" class="stem" stroke-width="1.35" stroke-linecap="round"/><circle cx="637.83" cy="148.70" r="2.75" class="dot"/></g><g><title>2026-08-26: 15 contributions</title><line x1="641.41" y1="196" x2="641.41" y2="166.28" class="stem" stroke-width="1.35" stroke-linecap="round"/><circle cx="641.41" cy="166.28" r="2.32" class="dot"/></g><g><title>2026-08-27: 10 contributions</title><line x1="644.99" y1="196" x2="644.99" y2="171.73" class="stem" stroke-width="1.35" stroke-linecap="round"/><circle cx="644.99" cy="171.73" r="2.19" class="dot"/></g><g><title>2026-08-28: 17 contributions</title><line x1="648.57" y1="196" x2="648.57" y2="164.36" class="stem" stroke-width="1.35" stroke-linecap="round"/><circle cx="648.57" cy="164.36" r="2.37" class="dot"/></g><g><title>2026-08-31: 16 contributions</title><line x1="659.31" y1="196" x2="659.31" y2="165.31" class="stem" stroke-width="1.35" stroke-linecap="round"/><circle cx="659.31" cy="165.31" r="2.35" class="dot"/></g><g><title>2026-09-01: 7 contributions</title><line x1="662.90" y1="196" x2="662.90" y2="175.70" class="stem" stroke-width="1.35" stroke-linecap="round"/><circle cx="662.90" cy="175.70" r="2.09" class="dot"/></g><g><title>2026-09-02: 9 contributions</title><line x1="666.48" y1="196" x2="666.48" y2="172.98" class="stem" stroke-width="1.35" stroke-linecap="round"/><circle cx="666.48" cy="172.98" r="2.16" class="dot"/></g><g><title>2026-09-04: 20 contributions</title><line x1="673.64" y1="196" x2="673.64" y2="161.68" class="stem" stroke-width="1.35" stroke-linecap="round"/><circle cx="673.64" cy="161.68" r="2.43" class="dot"/></g><g><title>2026-09-05: 16 contributions</title><line x1="677.22" y1="196" x2="677.22" y2="165.31" class="stem" stroke-width="1.35" stroke-linecap="round"/><circle cx="677.22" cy="165.31" r="2.35" class="dot"/></g><g><title>2026-09-06: 46 contributions</title><line x1="680.80" y1="196" x2="680.80" y2="143.96" class="stem" stroke-width="1.35" stroke-linecap="round"/><circle cx="680.80" cy="143.96" r="2.87" class="dot"/></g><g><title>2026-09-07: 20 contributions</title><line x1="684.38" y1="196" x2="684.38" y2="161.68" class="stem" stroke-width="1.35" stroke-linecap="round"/><circle cx="684.38" cy="161.68" r="2.43" class="dot"/></g><g><title>2026-09-08: 25 contributions</title><line x1="687.96" y1="196" x2="687.96" y2="157.63" class="stem" stroke-width="1.35" stroke-linecap="round"/><circle cx="687.96" cy="157.63" r="2.53" class="dot"/></g><g><title>2026-09-09: 3 contributions</title><line x1="691.54" y1="196" x2="691.54" y2="182.71" class="stem" stroke-width="1.35" stroke-linecap="round"/><circle cx="691.54" cy="182.71" r="1.92" class="dot"/></g><g><title>2026-09-10: 34 contributions</title><line x1="695.12" y1="196" x2="695.12" y2="151.26" class="stem" stroke-width="1.35" stroke-linecap="round"/><circle cx="695.12" cy="151.26" r="2.69" class="dot"/></g><g><title>2026-09-11: 3 contributions</title><line x1="698.70" y1="196" x2="698.70" y2="182.71" class="stem" stroke-width="1.35" stroke-linecap="round"/><circle cx="698.70" cy="182.71" r="1.92" class="dot"/></g><g><title>2026-09-12: 7 contributions</title><line x1="702.29" y1="196" x2="702.29" y2="175.70" class="stem" stroke-width="1.35" stroke-linecap="round"/><circle cx="702.29" cy="175.70" r="2.09" class="dot"/></g><g><title>2026-09-13: 7 contributions</title><line x1="705.87" y1="196" x2="705.87" y2="175.70" class="stem" stroke-width="1.35" stroke-linecap="round"/><circle cx="705.87" cy="175.70" r="2.09" class="dot"/></g><g><title>2026-09-14: 9 contributions</title><line x1="709.45" y1="196" x2="709.45" y2="172.98" class="stem" stroke-width="1.35" stroke-linecap="round"/><circle cx="709.45" cy="172.98" r="2.16" class="dot"/></g><g><title>2026-09-15: 8 contributions</title><line x1="713.03" y1="196" x2="713.03" y2="174.30" class="stem" stroke-width="1.35" stroke-linecap="round"/><circle cx="713.03" cy="174.30" r="2.13" class="dot"/></g><g><title>2026-09-16: 8 contributions</title><line x1="716.61" y1="196" x2="716.61" y2="174.30" class="stem" stroke-width="1.35" stroke-linecap="round"/><circle cx="716.61" cy="174.30" r="2.13" class="dot"/></g><g><title>2026-09-17: 1 contribution</title><line x1="720.19" y1="196" x2="720.19" y2="188.33" class="stem" stroke-width="1.35" stroke-linecap="round"/><circle cx="720.19" cy="188.33" r="1.79" class="dot"/></g><g><title>2026-09-19: 17 contributions</title><line x1="727.35" y1="196" x2="727.35" y2="164.36" class="stem" stroke-width="1.35" stroke-linecap="round"/><circle cx="727.35" cy="164.36" r="2.37" class="dot"/></g><g><title>2026-09-20: 5 contributions</title><line x1="730.93" y1="196" x2="730.93" y2="178.84" class="stem" stroke-width="1.35" stroke-linecap="round"/><circle cx="730.93" cy="178.84" r="2.02" class="dot"/></g><g><title>2026-09-21: 10 contributions</title><line x1="734.51" y1="196" x2="734.51" y2="171.73" class="stem" stroke-width="1.35" stroke-linecap="round"/><circle cx="734.51" cy="171.73" r="2.19" class="dot"/></g><g><title>2026-09-22: 3 contributions</title><line x1="738.10" y1="196" x2="738.10" y2="182.71" class="stem" stroke-width="1.35" stroke-linecap="round"/><circle cx="738.10" cy="182.71" r="1.92" class="dot"/></g></svg>