<svg xmlns="http://www.w3.org/2000/svg" width="760" height="220" viewBox="0 0 760 220" role="img" aria-labelledby="title desc"><title id="title">1116 contributions in 2026</title><desc id="desc">51 active days, peak month 587 (Aug), peak week 337, and peak day 93. Daily chart begins Mar 2026.</desc><style>:root{color-scheme:light dark}.bg{fill:#fff}.ink{fill:#1f2328}.muted{fill:#656d76}.line{stroke:#8c959f}.bar{fill:#8c959f}.stem{stroke:#8c959f}.dot{fill:#1f2328}.grid{stroke:#d8dee4}.track{fill:#eaeef2}@media(prefers-color-scheme:dark){.bg{fill:#0d1117}.ink{fill:#f0f6fc}.muted{fill:#8b949e}.line{stroke:#c9d1d9}.bar{fill:#c9d1d9}.stem{stroke:#8b949e}.dot{fill:#f0f6fc}.grid{stroke:#30363d}.track{fill:#30363d}}text{font-family:ui-monospace,SFMono-Regular,Menlo,Consolas,"Liberation Mono",monospace}</style><rect class="bg" width="760" height="220"/><text x="4" y="52" class="ink" font-size="54" font-weight="600">1116</text><text x="4" y="78" class="muted" font-size="13">contributions in 2026</text><text x="392" y="42" class="ink" font-size="22" font-weight="600" text-anchor="middle">51</text><text x="392" y="63" class="muted" font-size="9.5" text-anchor="middle">active days</text><text x="483" y="42" class="ink" font-size="22" font-weight="600" text-anchor="middle">587</text><text x="483" y="63" class="muted" font-size="9.5" text-anchor="middle">peak month</text><text x="483" y="79" class="muted" font-size="9" text-anchor="middle">Aug</text><text x="574" y="42" class="ink" font-size="22" font-weight="600" text-anchor="middle">337</text><text x="574" y="63" class="muted" font-size="9.5" text-anchor="middle">peak week</text><text x="665" y="42" class="ink" font-size="22" font-weight="600" text-anchor="middle">93</text><text x="665" y="63" class="muted" font-size="9.5" text-anchor="middle">peak day</text><line x1="4" y1="196" x2="756" y2="196" class="grid" stroke-width="1"/><text x="7.00" y="115" class="muted" font-size="10">Mar</text><line x1="108.54" y1="122" x2="108.54" y2="196" class="grid" stroke-width="1" stroke-dasharray="2 4"/><text x="111.54" y="115" class="muted" font-size="10">Apr</text><line x1="209.70" y1="122" x2="209.70" y2="196" class="grid" stroke-width="1" stroke-dasharray="2 4"/><text x="212.70" y="115" class="muted" font-size="10">May</text><line x1="314.24" y1="122" x2="314.24" y2="196" class="grid" stroke-width="1" stroke-dasharray="2 4"/><text x="317.24" y="115" class="muted" font-size="10">Jun</text><line x1="415.41" y1="122" x2="415.41" y2="196" class="grid" stroke-width="1" stroke-dasharray="2 4"/><text x="418.41" y="115" class="muted" font-size="10">Jul</text><line x1="519.95" y1="122" x2="519.95" y2="196" class="grid" stroke-width="1" stroke-dasharray="2 4"/><text x="522.95" y="115" class="muted" font-size="10">Aug</text><line x1="624.48" y1="122" x2="624.48" y2="196" class="grid" stroke-width="1" stroke-dasharray="2 4"/><text x="627.48" y="115" class="muted" font-size="10">Sep</text><line x1="725.65" y1="122" x2="725.65" y2="196" class="grid" stroke-width="1" stroke-dasharray="2 4"/><text x="728.65" y="115" class="muted" font-size="10">Oct</text><g><title>2026-03-16: 7 contributions</title><line x1="54.58" y1="196" x2="54.58" y2="175.70" class="stem" stroke-width="1.35" stroke-linecap="round"/><circle cx="54.58" cy="175.70" r="2.09" class="dot"/></g><g><title>2026-05-19: 17 contributions</title><line x1="270.40" y1="196" x2="270.40" y2="164.36" class="stem" stroke-width="1.35" stroke-linecap="round"/><circle cx="270.40" cy="164.36" r="2.37" class="dot"/></g><g><title>2026-05-21: 30 contributions</title><line x1="277.15" y1="196" x2="277.15" y2="153.97" class="stem" stroke-width="1.35" stroke-linecap="round"/><circle cx="277.15" cy="153.97" r="2.62" class="dot"/></g><g><title>2026-07-10: 50 contributions</title><line x1="445.76" y1="196" x2="445.76" y2="141.74" class="stem" stroke-width="1.35" stroke-linecap="round"/><circle cx="445.76" cy="141.74" r="2.92" class="dot"/></g><g><title>2026-07-13: 2 contributions</title><line x1="455.87" y1="196" x2="455.87" y2="185.15" class="stem" stroke-width="1.35" stroke-linecap="round"/><circle cx="455.87" cy="185.15" r="1.86" class="dot"/></g><g><title>2026-07-14: 72 contributions</title><line x1="459.25" y1="196" x2="459.25" y2="130.89" class="stem" stroke-width="1.35" stroke-linecap="round"/><circle cx="459.25" cy="130.89" r="3.18" class="dot"/></g><g><title>2026-07-22: 46 contributions</title><line x1="486.22" y1="196" x2="486.22" y2="143.96" class="stem" stroke-width="1.35" stroke-linecap="round"/><circle cx="486.22" cy="143.96" r="2.87" class="dot"/></g><g><title>2026-07-23: 11 contributions</title><line x1="489.60" y1="196" x2="489.60" y2="170.55" class="stem" stroke-width="1.35" stroke-linecap="round"/><circle cx="489.60" cy="170.55" r="2.22" class="dot"/></g><g><title>2026-07-24: 25 contributions</title><line x1="492.97" y1="196" x2="492.97" y2="157.63" class="stem" stroke-width="1.35" stroke-linecap="round"/><circle cx="492.97" cy="157.63" r="2.53" class="dot"/></g><g><title>2026-08-12: 8 contributions</title><line x1="557.04" y1="196" x2="557.04" y2="174.30" class="stem" stroke-width="1.35" stroke-linecap="round"/><circle cx="557.04" cy="174.30" r="2.13" class="dot"/></g><g><title>2026-08-13: 12 contributions</title><line x1="560.41" y1="196" x2="560.41" y2="169.42" class="stem" stroke-width="1.35" stroke-linecap="round"/><circle cx="560.41" cy="169.42" r="2.25" class="dot"/></g><g><title>2026-08-14: 8 contributions</title><line x1="563.78" y1="196" x2="563.78" y2="174.30" class="stem" stroke-width="1.35" stroke-linecap="round"/><circle cx="563.78" cy="174.30" r="2.13" class="dot"/></g><g><title>2026-08-15: 37 contributions</title><line x1="567.16" y1="196" x2="567.16" y2="149.32" class="stem" stroke-width="1.35" stroke-linecap="round"/><circle cx="567.16" cy="149.32" r="2.74" class="dot"/></g><g><title>2026-08-16: 36 contributions</title><line x1="570.53" y1="196" x2="570.53" y2="149.96" class="stem" stroke-width="1.35" stroke-linecap="round"/><circle cx="570.53" cy="149.96" r="2.72" class="dot"/></g><g><title>2026-08-17: 74 contributions</title><line x1="573.90" y1="196" x2="573.90" y2="129.99" class="stem" stroke-width="1.35" stroke-linecap="round"/><circle cx="573.90" cy="129.99" r="3.21" class="dot"/></g><g><title>2026-08-18: 93 contributions</title><line x1="577.27" y1="196" x2="577.27" y2="122.00" class="stem" stroke-width="1.35" stroke-linecap="round"/><circle cx="577.27" cy="122.00" r="3.40" class="dot"/></g><g><title>2026-08-19: 1 contribution</title><line x1="580.65" y1="196" x2="580.65" y2="188.33" class="stem" stroke-width="1.35" stroke-linecap="round"/><circle cx="580.65" cy="188.33" r="1.79" class="dot"/></g><g><title>2026-08-20: 23 contributions</title><line x1="584.02" y1="196" x2="584.02" y2="159.20" class="stem" stroke-width="1.35" stroke-linecap="round"/><circle cx="584.02" cy="159.20" r="2.50" class="dot"/></g><g><title>2026-08-21: 75 contributions</title><line x1="587.39" y1="196" x2="587.39" y2="129.55" class="stem" stroke-width="1.35" stroke-linecap="round"/><circle cx="587.39" cy="129.55" r="3.22" class="dot"/></g><g><title>2026-08-22: 35 contributions</title><line x1="590.76" y1="196" x2="590.76" y2="150.60" class="stem" stroke-width="1.35" stroke-linecap="round"/><circle cx="590.76" cy="150.60" r="2.70" class="dot"/></g><g><title>2026-08-23: 38 contributions</title><line x1="594.13" y1="196" x2="594.13" y2="148.70" class="stem" stroke-width="1.35" stroke-linecap="round"/><circle cx="594.13" cy="148.70" r="2.75" class="dot"/></g><g><title>2026-08-24: 51 contributions</title><line x1="597.51" y1="196" x2="597.51" y2="141.20" class="stem" stroke-width="1.35" stroke-linecap="round"/><circle cx="597.51" cy="141.20" r="2.93" class="dot"/></g><g><title>2026-08-25: 38 contributions</title><line x1="600.88" y1="196" x2="600.88" y2="148.70" class="stem" stroke-width="1.35" stroke-linecap="round"/><circle cx="600.88" cy="148.70" r="2.75" class="dot"/></g><g><title>2026-08-26: 15 contributions</title><line x1="604.25" y1="196" x2="604.25" y2="166.28" class="stem" stroke-width="1.35" stroke-linecap="round"/><circle cx="604.25" cy="166.28" r="2.32" class="dot"/></g><g><title>2026-08-27: 10 contributions</title><line x1="607.62" y1="196" x2="607.62" y2="171.73" class="stem" stroke-width="1.35" stroke-linecap="round"/><circle cx="607.62" cy="171.73" r="2.19" class="dot"/></g><g><title>2026-08-28: 17 contributions</title><line x1="611.00" y1="196" x2="611.00" y2="164.36" class="stem" stroke-width="1.35" stroke-linecap="round"/><circle cx="611.00" cy="164.36" r="2.37" class="dot"/></g><g><title>2026-08-31: 16 contributions</title><line x1="621.11" y1="196" x2="621.11" y2="165.31" class="stem" stroke-width="1.35" stroke-linecap="round"/><circle cx="621.11" cy="165.31" r="2.35" class="dot"/></g><g><title>2026-09-01: 7 contributions</title><line x1="624.48" y1="196" x2="624.48" y2="175.70" class="stem" stroke-width="1.35" stroke-linecap="round"/><circle cx="624.48" cy="175.70" r="2.09" class="dot"/></g><g><title>2026-09-02: 9 contributions</title><line x1="627.86" y1="196" x2="627.86" y2="172.98" class="stem" stroke-width="1.35" stroke-linecap="round"/><circle cx="627.86" cy="172.98" r="2.16" class="dot"/></g><g><title>2026-09-04: 20 contributions</title><line x1="634.60" y1="196" x2="634.60" y2="161.68" class="stem" stroke-width="1.35" stroke-linecap="round"/><circle cx="634.60" cy="161.68" r="2.43" class="dot"/></g><g><title>2026-09-05: 16 contributions</title><line x1="637.97" y1="196" x2="637.97" y2="165.31" class="stem" stroke-width="1.35" stroke-linecap="round"/><circle cx="637.97" cy="165.31" r="2.35" class="dot"/></g><g><title>2026-09-06: 46 contributions</title><line x1="641.35" y1="196" x2="641.35" y2="143.96" class="stem" stroke-width="1.35" stroke-linecap="round"/><circle cx="641.35" cy="143.96" r="2.87" class="dot"/></g><g><title>2026-09-07: 20 contributions</title><line x1="644.72" y1="196" x2="644.72" y2="161.68" class="stem" stroke-width="1.35" stroke-linecap="round"/><circle cx="644.72" cy="161.68" r="2.43" class="dot"/></g><g><title>2026-09-08: 25 contributions</title><line x1="648.09" y1="196" x2="648.09" y2="157.63" class="stem" stroke-width="1.35" stroke-linecap="round"/><circle cx="648.09" cy="157.63" r="2.53" class="dot"/></g><g><title>2026-09-09: 3 contributions</title><line x1="651.46" y1="196" x2="651.46" y2="182.71" class="stem" stroke-width="1.35" stroke-linecap="round"/><circle cx="651.46" cy="182.71" r="1.92" class="dot"/></g><g><title>2026-09-10: 34 contributions</title><line x1="654.83" y1="196" x2="654.83" y2="151.26" class="stem" stroke-width="1.35" stroke-linecap="round"/><circle cx="654.83" cy="151.26" r="2.69" class="dot"/></g><g><title>2026-09-11: 3 contributions</title><line x1="658.21" y1="196" x2="658.21" y2="182.71" class="stem" stroke-width="1.35" stroke-linecap="round"/><circle cx="658.21" cy="182.71" r="1.92" class="dot"/></g><g><title>2026-09-12: 7 contributions</title><line x1="661.58" y1="196" x2="661.58" y2="175.70" class="stem" stroke-width="1.35" stroke-linecap="round"/><circle cx="661.58" cy="175.70" r="2.09" class="dot"/></g><g><title>2026-09-13: 7 contributions</title><line x1="664.95" y1="196" x2="664.95" y2="175.70" class="stem" stroke-width="1.35" stroke-linecap="round"/><circle cx="664.95" cy="175.70" r="2.09" class="dot"/></g><g><title>2026-09-14: 9 contributions</title><line x1="668.32" y1="196" x2="668.32" y2="172.98" class="stem" stroke-width="1.35" stroke-linecap="round"/><circle cx="668.32" cy="172.98" r="2.16" class="dot"/></g><g><title>2026-09-15: 8 contributions</title><line x1="671.70" y1="196" x2="671.70" y2="174.30" class="stem" stroke-width="1.35" stroke-linecap="round"/><circle cx="671.70" cy="174.30" r="2.13" class="dot"/></g><g><title>2026-09-16: 8 contributions</title><line x1="675.07" y1="196" x2="675.07" y2="174.30" class="stem" stroke-width="1.35" stroke-linecap="round"/><circle cx="675.07" cy="174.30" r="2.13" class="dot"/></g><g><title>2026-09-17: 1 contribution</title><line x1="678.44" y1="196" x2="678.44" y2="188.33" class="stem" stroke-width="1.35" stroke-linecap="round"/><circle cx="678.44" cy="188.33" r="1.79" class="dot"/></g><g><title>2026-09-19: 17 contributions</title><line x1="685.18" y1="196" x2="685.18" y2="164.36" class="stem" stroke-width="1.35" stroke-linecap="round"/><circle cx="685.18" cy="164.36" r="2.37" class="dot"/></g><g><title>2026-09-20: 5 contributions</title><line x1="688.56" y1="196" x2="688.56" y2="178.84" class="stem" stroke-width="1.35" stroke-linecap="round"/><circle cx="688.56" cy="178.84" r="2.02" class="dot"/></g><g><title>2026-09-21: 10 contributions</title><line x1="691.93" y1="196" x2="691.93" y2="171.73" class="stem" stroke-width="1.35" stroke-linecap="round"/><circle cx="691.93" cy="171.73" r="2.19" class="dot"/></g><g><title>2026-09-22: 3 contributions</title><line x1="695.30" y1="196" x2="695.30" y2="182.71" class="stem" stroke-width="1.35" stroke-linecap="round"/><circle cx="695.30" cy="182.71" r="1.92" class="dot"/></g><g><title>2026-09-28: 1 contribution</title><line x1="715.53" y1="196" x2="715.53" y2="188.33" class="stem" stroke-width="1.35" stroke-linecap="round"/><circle cx="715.53" cy="188.33" r="1.79" class="dot"/></g><g><title>2026-10-04: 1 contribution</title><line x1="735.77" y1="196" x2="735.77" y2="188.33" class="stem" stroke-width="1.35" stroke-linecap="round"/><circle cx="735.77" cy="188.33" r="1.79" class="dot"/></g><g><title>2026-10-05: 8 contributions</title><line x1="739.14" y1="196" x2="739.14" y2="174.30" class="stem" stroke-width="1.35" stroke-linecap="round"/><circle cx="739.14" cy="174.30" r="2.13" class="dot"/></g></svg>