<svg xmlns="http://www.w3.org/2000/svg" width="760" height="220" viewBox="0 0 760 220" role="img" aria-labelledby="title desc"><title id="title">1035 contributions in 2026</title><desc id="desc">49 active days, peak month 579 (Aug), peak week 337, and peak day 93. Daily chart begins Mar 2026.</desc><style>:root{color-scheme:light dark}.bg{fill:#fff}.ink{fill:#1f2328}.muted{fill:#656d76}.line{stroke:#8c959f}.bar{fill:#8c959f}.stem{stroke:#8c959f}.dot{fill:#1f2328}.grid{stroke:#d8dee4}.track{fill:#eaeef2}@media(prefers-color-scheme:dark){.bg{fill:#0d1117}.ink{fill:#f0f6fc}.muted{fill:#8b949e}.line{stroke:#c9d1d9}.bar{fill:#c9d1d9}.stem{stroke:#8b949e}.dot{fill:#f0f6fc}.grid{stroke:#30363d}.track{fill:#30363d}}text{font-family:ui-monospace,SFMono-Regular,Menlo,Consolas,"Liberation Mono",monospace}</style><rect class="bg" width="760" height="220"/><text x="4" y="52" class="ink" font-size="54" font-weight="600">1035</text><text x="4" y="78" class="muted" font-size="13">contributions in 2026</text><text x="392" y="42" class="ink" font-size="22" font-weight="600" text-anchor="middle">49</text><text x="392" y="63" class="muted" font-size="9.5" text-anchor="middle">active days</text><text x="483" y="42" class="ink" font-size="22" font-weight="600" text-anchor="middle">579</text><text x="483" y="63" class="muted" font-size="9.5" text-anchor="middle">peak month</text><text x="483" y="79" class="muted" font-size="9" text-anchor="middle">Aug</text><text x="574" y="42" class="ink" font-size="22" font-weight="600" text-anchor="middle">337</text><text x="574" y="63" class="muted" font-size="9.5" text-anchor="middle">peak week</text><text x="665" y="42" class="ink" font-size="22" font-weight="600" text-anchor="middle">93</text><text x="665" y="63" class="muted" font-size="9.5" text-anchor="middle">peak day</text><line x1="4" y1="196" x2="756" y2="196" class="grid" stroke-width="1"/><text x="7.00" y="115" class="muted" font-size="10">Mar</text><line x1="113.96" y1="122" x2="113.96" y2="196" class="grid" stroke-width="1" stroke-dasharray="2 4"/><text x="116.96" y="115" class="muted" font-size="10">Apr</text><line x1="220.38" y1="122" x2="220.38" y2="196" class="grid" stroke-width="1" stroke-dasharray="2 4"/><text x="223.38" y="115" class="muted" font-size="10">May</text><line x1="330.34" y1="122" x2="330.34" y2="196" class="grid" stroke-width="1" stroke-dasharray="2 4"/><text x="333.34" y="115" class="muted" font-size="10">Jun</text><line x1="436.75" y1="122" x2="436.75" y2="196" class="grid" stroke-width="1" stroke-dasharray="2 4"/><text x="439.75" y="115" class="muted" font-size="10">Jul</text><line x1="546.72" y1="122" x2="546.72" y2="196" class="grid" stroke-width="1" stroke-dasharray="2 4"/><text x="549.72" y="115" class="muted" font-size="10">Aug</text><line x1="656.68" y1="122" x2="656.68" y2="196" class="grid" stroke-width="1" stroke-dasharray="2 4"/><text x="659.68" y="115" class="muted" font-size="10">Sep</text><g><title>2026-03-16: 7 contributions</title><line x1="57.21" y1="196" x2="57.21" y2="175.70" class="stem" stroke-width="1.35" stroke-linecap="round"/><circle cx="57.21" cy="175.70" r="2.09" class="dot"/></g><g><title>2026-05-19: 14 contributions</title><line x1="284.23" y1="196" x2="284.23" y2="167.29" class="stem" stroke-width="1.35" stroke-linecap="round"/><circle cx="284.23" cy="167.29" r="2.30" class="dot"/></g><g><title>2026-05-21: 30 contributions</title><line x1="291.32" y1="196" x2="291.32" y2="153.97" class="stem" stroke-width="1.35" stroke-linecap="round"/><circle cx="291.32" cy="153.97" r="2.62" class="dot"/></g><g><title>2026-07-10: 25 contributions</title><line x1="468.68" y1="196" x2="468.68" y2="157.63" class="stem" stroke-width="1.35" stroke-linecap="round"/><circle cx="468.68" cy="157.63" r="2.53" class="dot"/></g><g><title>2026-07-13: 2 contributions</title><line x1="479.32" y1="196" x2="479.32" y2="185.15" class="stem" stroke-width="1.35" stroke-linecap="round"/><circle cx="479.32" cy="185.15" r="1.86" class="dot"/></g><g><title>2026-07-14: 36 contributions</title><line x1="482.87" y1="196" x2="482.87" y2="149.96" class="stem" stroke-width="1.35" stroke-linecap="round"/><circle cx="482.87" cy="149.96" r="2.72" class="dot"/></g><g><title>2026-07-22: 46 contributions</title><line x1="511.25" y1="196" x2="511.25" y2="143.96" class="stem" stroke-width="1.35" stroke-linecap="round"/><circle cx="511.25" cy="143.96" r="2.87" class="dot"/></g><g><title>2026-07-23: 11 contributions</title><line x1="514.79" y1="196" x2="514.79" y2="170.55" class="stem" stroke-width="1.35" stroke-linecap="round"/><circle cx="514.79" cy="170.55" r="2.22" class="dot"/></g><g><title>2026-07-24: 25 contributions</title><line x1="518.34" y1="196" x2="518.34" y2="157.63" class="stem" stroke-width="1.35" stroke-linecap="round"/><circle cx="518.34" cy="157.63" r="2.53" class="dot"/></g><g><title>2026-08-12: 8 contributions</title><line x1="585.74" y1="196" x2="585.74" y2="174.30" class="stem" stroke-width="1.35" stroke-linecap="round"/><circle cx="585.74" cy="174.30" r="2.13" class="dot"/></g><g><title>2026-08-13: 12 contributions</title><line x1="589.28" y1="196" x2="589.28" y2="169.42" class="stem" stroke-width="1.35" stroke-linecap="round"/><circle cx="589.28" cy="169.42" r="2.25" class="dot"/></g><g><title>2026-08-14: 8 contributions</title><line x1="592.83" y1="196" x2="592.83" y2="174.30" class="stem" stroke-width="1.35" stroke-linecap="round"/><circle cx="592.83" cy="174.30" r="2.13" class="dot"/></g><g><title>2026-08-15: 37 contributions</title><line x1="596.38" y1="196" x2="596.38" y2="149.32" class="stem" stroke-width="1.35" stroke-linecap="round"/><circle cx="596.38" cy="149.32" r="2.74" class="dot"/></g><g><title>2026-08-16: 36 contributions</title><line x1="599.92" y1="196" x2="599.92" y2="149.96" class="stem" stroke-width="1.35" stroke-linecap="round"/><circle cx="599.92" cy="149.96" r="2.72" class="dot"/></g><g><title>2026-08-17: 74 contributions</title><line x1="603.47" y1="196" x2="603.47" y2="129.99" class="stem" stroke-width="1.35" stroke-linecap="round"/><circle cx="603.47" cy="129.99" r="3.21" class="dot"/></g><g><title>2026-08-18: 93 contributions</title><line x1="607.02" y1="196" x2="607.02" y2="122.00" class="stem" stroke-width="1.35" stroke-linecap="round"/><circle cx="607.02" cy="122.00" r="3.40" class="dot"/></g><g><title>2026-08-19: 1 contribution</title><line x1="610.57" y1="196" x2="610.57" y2="188.33" class="stem" stroke-width="1.35" stroke-linecap="round"/><circle cx="610.57" cy="188.33" r="1.79" class="dot"/></g><g><title>2026-08-20: 23 contributions</title><line x1="614.11" y1="196" x2="614.11" y2="159.20" class="stem" stroke-width="1.35" stroke-linecap="round"/><circle cx="614.11" cy="159.20" r="2.50" class="dot"/></g><g><title>2026-08-21: 75 contributions</title><line x1="617.66" y1="196" x2="617.66" y2="129.55" class="stem" stroke-width="1.35" stroke-linecap="round"/><circle cx="617.66" cy="129.55" r="3.22" class="dot"/></g><g><title>2026-08-22: 35 contributions</title><line x1="621.21" y1="196" x2="621.21" y2="150.60" class="stem" stroke-width="1.35" stroke-linecap="round"/><circle cx="621.21" cy="150.60" r="2.70" class="dot"/></g><g><title>2026-08-23: 38 contributions</title><line x1="624.75" y1="196" x2="624.75" y2="148.70" class="stem" stroke-width="1.35" stroke-linecap="round"/><circle cx="624.75" cy="148.70" r="2.75" class="dot"/></g><g><title>2026-08-24: 43 contributions</title><line x1="628.30" y1="196" x2="628.30" y2="145.68" class="stem" stroke-width="1.35" stroke-linecap="round"/><circle cx="628.30" cy="145.68" r="2.82" class="dot"/></g><g><title>2026-08-25: 38 contributions</title><line x1="631.85" y1="196" x2="631.85" y2="148.70" class="stem" stroke-width="1.35" stroke-linecap="round"/><circle cx="631.85" cy="148.70" r="2.75" class="dot"/></g><g><title>2026-08-26: 15 contributions</title><line x1="635.40" y1="196" x2="635.40" y2="166.28" class="stem" stroke-width="1.35" stroke-linecap="round"/><circle cx="635.40" cy="166.28" r="2.32" class="dot"/></g><g><title>2026-08-27: 10 contributions</title><line x1="638.94" y1="196" x2="638.94" y2="171.73" class="stem" stroke-width="1.35" stroke-linecap="round"/><circle cx="638.94" cy="171.73" r="2.19" class="dot"/></g><g><title>2026-08-28: 17 contributions</title><line x1="642.49" y1="196" x2="642.49" y2="164.36" class="stem" stroke-width="1.35" stroke-linecap="round"/><circle cx="642.49" cy="164.36" r="2.37" class="dot"/></g><g><title>2026-08-31: 16 contributions</title><line x1="653.13" y1="196" x2="653.13" y2="165.31" class="stem" stroke-width="1.35" stroke-linecap="round"/><circle cx="653.13" cy="165.31" r="2.35" class="dot"/></g><g><title>2026-09-01: 7 contributions</title><line x1="656.68" y1="196" x2="656.68" y2="175.70" class="stem" stroke-width="1.35" stroke-linecap="round"/><circle cx="656.68" cy="175.70" r="2.09" class="dot"/></g><g><title>2026-09-02: 9 contributions</title><line x1="660.23" y1="196" x2="660.23" y2="172.98" class="stem" stroke-width="1.35" stroke-linecap="round"/><circle cx="660.23" cy="172.98" r="2.16" class="dot"/></g><g><title>2026-09-04: 20 contributions</title><line x1="667.32" y1="196" x2="667.32" y2="161.68" class="stem" stroke-width="1.35" stroke-linecap="round"/><circle cx="667.32" cy="161.68" r="2.43" class="dot"/></g><g><title>2026-09-05: 16 contributions</title><line x1="670.87" y1="196" x2="670.87" y2="165.31" class="stem" stroke-width="1.35" stroke-linecap="round"/><circle cx="670.87" cy="165.31" r="2.35" class="dot"/></g><g><title>2026-09-06: 46 contributions</title><line x1="674.42" y1="196" x2="674.42" y2="143.96" class="stem" stroke-width="1.35" stroke-linecap="round"/><circle cx="674.42" cy="143.96" r="2.87" class="dot"/></g><g><title>2026-09-07: 20 contributions</title><line x1="677.96" y1="196" x2="677.96" y2="161.68" class="stem" stroke-width="1.35" stroke-linecap="round"/><circle cx="677.96" cy="161.68" r="2.43" class="dot"/></g><g><title>2026-09-08: 25 contributions</title><line x1="681.51" y1="196" x2="681.51" y2="157.63" class="stem" stroke-width="1.35" stroke-linecap="round"/><circle cx="681.51" cy="157.63" r="2.53" class="dot"/></g><g><title>2026-09-09: 3 contributions</title><line x1="685.06" y1="196" x2="685.06" y2="182.71" class="stem" stroke-width="1.35" stroke-linecap="round"/><circle cx="685.06" cy="182.71" r="1.92" class="dot"/></g><g><title>2026-09-10: 34 contributions</title><line x1="688.60" y1="196" x2="688.60" y2="151.26" class="stem" stroke-width="1.35" stroke-linecap="round"/><circle cx="688.60" cy="151.26" r="2.69" class="dot"/></g><g><title>2026-09-11: 3 contributions</title><line x1="692.15" y1="196" x2="692.15" y2="182.71" class="stem" stroke-width="1.35" stroke-linecap="round"/><circle cx="692.15" cy="182.71" r="1.92" class="dot"/></g><g><title>2026-09-12: 7 contributions</title><line x1="695.70" y1="196" x2="695.70" y2="175.70" class="stem" stroke-width="1.35" stroke-linecap="round"/><circle cx="695.70" cy="175.70" r="2.09" class="dot"/></g><g><title>2026-09-13: 7 contributions</title><line x1="699.25" y1="196" x2="699.25" y2="175.70" class="stem" stroke-width="1.35" stroke-linecap="round"/><circle cx="699.25" cy="175.70" r="2.09" class="dot"/></g><g><title>2026-09-14: 9 contributions</title><line x1="702.79" y1="196" x2="702.79" y2="172.98" class="stem" stroke-width="1.35" stroke-linecap="round"/><circle cx="702.79" cy="172.98" r="2.16" class="dot"/></g><g><title>2026-09-15: 8 contributions</title><line x1="706.34" y1="196" x2="706.34" y2="174.30" class="stem" stroke-width="1.35" stroke-linecap="round"/><circle cx="706.34" cy="174.30" r="2.13" class="dot"/></g><g><title>2026-09-16: 8 contributions</title><line x1="709.89" y1="196" x2="709.89" y2="174.30" class="stem" stroke-width="1.35" stroke-linecap="round"/><circle cx="709.89" cy="174.30" r="2.13" class="dot"/></g><g><title>2026-09-17: 1 contribution</title><line x1="713.43" y1="196" x2="713.43" y2="188.33" class="stem" stroke-width="1.35" stroke-linecap="round"/><circle cx="713.43" cy="188.33" r="1.79" class="dot"/></g><g><title>2026-09-19: 17 contributions</title><line x1="720.53" y1="196" x2="720.53" y2="164.36" class="stem" stroke-width="1.35" stroke-linecap="round"/><circle cx="720.53" cy="164.36" r="2.37" class="dot"/></g><g><title>2026-09-20: 5 contributions</title><line x1="724.08" y1="196" x2="724.08" y2="178.84" class="stem" stroke-width="1.35" stroke-linecap="round"/><circle cx="724.08" cy="178.84" r="2.02" class="dot"/></g><g><title>2026-09-21: 10 contributions</title><line x1="727.62" y1="196" x2="727.62" y2="171.73" class="stem" stroke-width="1.35" stroke-linecap="round"/><circle cx="727.62" cy="171.73" r="2.19" class="dot"/></g><g><title>2026-09-22: 3 contributions</title><line x1="731.17" y1="196" x2="731.17" y2="182.71" class="stem" stroke-width="1.35" stroke-linecap="round"/><circle cx="731.17" cy="182.71" r="1.92" class="dot"/></g><g><title>2026-09-28: 1 contribution</title><line x1="752.45" y1="196" x2="752.45" y2="188.33" class="stem" stroke-width="1.35" stroke-linecap="round"/><circle cx="752.45" cy="188.33" r="1.79" class="dot"/></g></svg>