<svg xmlns="http://www.w3.org/2000/svg" width="760" height="220" viewBox="0 0 760 220" role="img" aria-labelledby="title desc"><title id="title">1034 contributions in 2026</title><desc id="desc">48 active days, peak month 579 (Aug), peak week 337, and peak day 93. Daily chart begins Mar 2026.</desc><style>:root{color-scheme:light dark}.bg{fill:#fff}.ink{fill:#1f2328}.muted{fill:#656d76}.line{stroke:#8c959f}.bar{fill:#8c959f}.stem{stroke:#8c959f}.dot{fill:#1f2328}.grid{stroke:#d8dee4}.track{fill:#eaeef2}@media(prefers-color-scheme:dark){.bg{fill:#0d1117}.ink{fill:#f0f6fc}.muted{fill:#8b949e}.line{stroke:#c9d1d9}.bar{fill:#c9d1d9}.stem{stroke:#8b949e}.dot{fill:#f0f6fc}.grid{stroke:#30363d}.track{fill:#30363d}}text{font-family:ui-monospace,SFMono-Regular,Menlo,Consolas,"Liberation Mono",monospace}</style><rect class="bg" width="760" height="220"/><text x="4" y="52" class="ink" font-size="54" font-weight="600">1034</text><text x="4" y="78" class="muted" font-size="13">contributions in 2026</text><text x="392" y="42" class="ink" font-size="22" font-weight="600" text-anchor="middle">48</text><text x="392" y="63" class="muted" font-size="9.5" text-anchor="middle">active days</text><text x="483" y="42" class="ink" font-size="22" font-weight="600" text-anchor="middle">579</text><text x="483" y="63" class="muted" font-size="9.5" text-anchor="middle">peak month</text><text x="483" y="79" class="muted" font-size="9" text-anchor="middle">Aug</text><text x="574" y="42" class="ink" font-size="22" font-weight="600" text-anchor="middle">337</text><text x="574" y="63" class="muted" font-size="9.5" text-anchor="middle">peak week</text><text x="665" y="42" class="ink" font-size="22" font-weight="600" text-anchor="middle">93</text><text x="665" y="63" class="muted" font-size="9.5" text-anchor="middle">peak day</text><line x1="4" y1="196" x2="756" y2="196" class="grid" stroke-width="1"/><text x="7.00" y="115" class="muted" font-size="10">Mar</text><line x1="114.48" y1="122" x2="114.48" y2="196" class="grid" stroke-width="1" stroke-dasharray="2 4"/><text x="117.48" y="115" class="muted" font-size="10">Apr</text><line x1="221.40" y1="122" x2="221.40" y2="196" class="grid" stroke-width="1" stroke-dasharray="2 4"/><text x="224.40" y="115" class="muted" font-size="10">May</text><line x1="331.89" y1="122" x2="331.89" y2="196" class="grid" stroke-width="1" stroke-dasharray="2 4"/><text x="334.89" y="115" class="muted" font-size="10">Jun</text><line x1="438.81" y1="122" x2="438.81" y2="196" class="grid" stroke-width="1" stroke-dasharray="2 4"/><text x="441.81" y="115" class="muted" font-size="10">Jul</text><line x1="549.29" y1="122" x2="549.29" y2="196" class="grid" stroke-width="1" stroke-dasharray="2 4"/><text x="552.29" y="115" class="muted" font-size="10">Aug</text><line x1="659.77" y1="122" x2="659.77" y2="196" class="grid" stroke-width="1" stroke-dasharray="2 4"/><text x="662.77" y="115" class="muted" font-size="10">Sep</text><g><title>2026-03-16: 7 contributions</title><line x1="57.46" y1="196" x2="57.46" y2="175.70" class="stem" stroke-width="1.35" stroke-linecap="round"/><circle cx="57.46" cy="175.70" r="2.09" class="dot"/></g><g><title>2026-05-19: 14 contributions</title><line x1="285.55" y1="196" x2="285.55" y2="167.29" class="stem" stroke-width="1.35" stroke-linecap="round"/><circle cx="285.55" cy="167.29" r="2.30" class="dot"/></g><g><title>2026-05-21: 30 contributions</title><line x1="292.68" y1="196" x2="292.68" y2="153.97" class="stem" stroke-width="1.35" stroke-linecap="round"/><circle cx="292.68" cy="153.97" r="2.62" class="dot"/></g><g><title>2026-07-10: 25 contributions</title><line x1="470.88" y1="196" x2="470.88" y2="157.63" class="stem" stroke-width="1.35" stroke-linecap="round"/><circle cx="470.88" cy="157.63" r="2.53" class="dot"/></g><g><title>2026-07-13: 2 contributions</title><line x1="481.57" y1="196" x2="481.57" y2="185.15" class="stem" stroke-width="1.35" stroke-linecap="round"/><circle cx="481.57" cy="185.15" r="1.86" class="dot"/></g><g><title>2026-07-14: 36 contributions</title><line x1="485.14" y1="196" x2="485.14" y2="149.96" class="stem" stroke-width="1.35" stroke-linecap="round"/><circle cx="485.14" cy="149.96" r="2.72" class="dot"/></g><g><title>2026-07-22: 46 contributions</title><line x1="513.65" y1="196" x2="513.65" y2="143.96" class="stem" stroke-width="1.35" stroke-linecap="round"/><circle cx="513.65" cy="143.96" r="2.87" class="dot"/></g><g><title>2026-07-23: 11 contributions</title><line x1="517.21" y1="196" x2="517.21" y2="170.55" class="stem" stroke-width="1.35" stroke-linecap="round"/><circle cx="517.21" cy="170.55" r="2.22" class="dot"/></g><g><title>2026-07-24: 25 contributions</title><line x1="520.78" y1="196" x2="520.78" y2="157.63" class="stem" stroke-width="1.35" stroke-linecap="round"/><circle cx="520.78" cy="157.63" r="2.53" class="dot"/></g><g><title>2026-08-12: 8 contributions</title><line x1="588.49" y1="196" x2="588.49" y2="174.30" class="stem" stroke-width="1.35" stroke-linecap="round"/><circle cx="588.49" cy="174.30" r="2.13" class="dot"/></g><g><title>2026-08-13: 12 contributions</title><line x1="592.06" y1="196" x2="592.06" y2="169.42" class="stem" stroke-width="1.35" stroke-linecap="round"/><circle cx="592.06" cy="169.42" r="2.25" class="dot"/></g><g><title>2026-08-14: 8 contributions</title><line x1="595.62" y1="196" x2="595.62" y2="174.30" class="stem" stroke-width="1.35" stroke-linecap="round"/><circle cx="595.62" cy="174.30" r="2.13" class="dot"/></g><g><title>2026-08-15: 37 contributions</title><line x1="599.18" y1="196" x2="599.18" y2="149.32" class="stem" stroke-width="1.35" stroke-linecap="round"/><circle cx="599.18" cy="149.32" r="2.74" class="dot"/></g><g><title>2026-08-16: 36 contributions</title><line x1="602.75" y1="196" x2="602.75" y2="149.96" class="stem" stroke-width="1.35" stroke-linecap="round"/><circle cx="602.75" cy="149.96" r="2.72" class="dot"/></g><g><title>2026-08-17: 74 contributions</title><line x1="606.31" y1="196" x2="606.31" y2="129.99" class="stem" stroke-width="1.35" stroke-linecap="round"/><circle cx="606.31" cy="129.99" r="3.21" class="dot"/></g><g><title>2026-08-18: 93 contributions</title><line x1="609.88" y1="196" x2="609.88" y2="122.00" class="stem" stroke-width="1.35" stroke-linecap="round"/><circle cx="609.88" cy="122.00" r="3.40" class="dot"/></g><g><title>2026-08-19: 1 contribution</title><line x1="613.44" y1="196" x2="613.44" y2="188.33" class="stem" stroke-width="1.35" stroke-linecap="round"/><circle cx="613.44" cy="188.33" r="1.79" class="dot"/></g><g><title>2026-08-20: 23 contributions</title><line x1="617.00" y1="196" x2="617.00" y2="159.20" class="stem" stroke-width="1.35" stroke-linecap="round"/><circle cx="617.00" cy="159.20" r="2.50" class="dot"/></g><g><title>2026-08-21: 75 contributions</title><line x1="620.57" y1="196" x2="620.57" y2="129.55" class="stem" stroke-width="1.35" stroke-linecap="round"/><circle cx="620.57" cy="129.55" r="3.22" class="dot"/></g><g><title>2026-08-22: 35 contributions</title><line x1="624.13" y1="196" x2="624.13" y2="150.60" class="stem" stroke-width="1.35" stroke-linecap="round"/><circle cx="624.13" cy="150.60" r="2.70" class="dot"/></g><g><title>2026-08-23: 38 contributions</title><line x1="627.70" y1="196" x2="627.70" y2="148.70" class="stem" stroke-width="1.35" stroke-linecap="round"/><circle cx="627.70" cy="148.70" r="2.75" class="dot"/></g><g><title>2026-08-24: 43 contributions</title><line x1="631.26" y1="196" x2="631.26" y2="145.68" class="stem" stroke-width="1.35" stroke-linecap="round"/><circle cx="631.26" cy="145.68" r="2.82" class="dot"/></g><g><title>2026-08-25: 38 contributions</title><line x1="634.82" y1="196" x2="634.82" y2="148.70" class="stem" stroke-width="1.35" stroke-linecap="round"/><circle cx="634.82" cy="148.70" r="2.75" class="dot"/></g><g><title>2026-08-26: 15 contributions</title><line x1="638.39" y1="196" x2="638.39" y2="166.28" class="stem" stroke-width="1.35" stroke-linecap="round"/><circle cx="638.39" cy="166.28" r="2.32" class="dot"/></g><g><title>2026-08-27: 10 contributions</title><line x1="641.95" y1="196" x2="641.95" y2="171.73" class="stem" stroke-width="1.35" stroke-linecap="round"/><circle cx="641.95" cy="171.73" r="2.19" class="dot"/></g><g><title>2026-08-28: 17 contributions</title><line x1="645.52" y1="196" x2="645.52" y2="164.36" class="stem" stroke-width="1.35" stroke-linecap="round"/><circle cx="645.52" cy="164.36" r="2.37" class="dot"/></g><g><title>2026-08-31: 16 contributions</title><line x1="656.21" y1="196" x2="656.21" y2="165.31" class="stem" stroke-width="1.35" stroke-linecap="round"/><circle cx="656.21" cy="165.31" r="2.35" class="dot"/></g><g><title>2026-09-01: 7 contributions</title><line x1="659.77" y1="196" x2="659.77" y2="175.70" class="stem" stroke-width="1.35" stroke-linecap="round"/><circle cx="659.77" cy="175.70" r="2.09" class="dot"/></g><g><title>2026-09-02: 9 contributions</title><line x1="663.34" y1="196" x2="663.34" y2="172.98" class="stem" stroke-width="1.35" stroke-linecap="round"/><circle cx="663.34" cy="172.98" r="2.16" class="dot"/></g><g><title>2026-09-04: 20 contributions</title><line x1="670.46" y1="196" x2="670.46" y2="161.68" class="stem" stroke-width="1.35" stroke-linecap="round"/><circle cx="670.46" cy="161.68" r="2.43" class="dot"/></g><g><title>2026-09-05: 16 contributions</title><line x1="674.03" y1="196" x2="674.03" y2="165.31" class="stem" stroke-width="1.35" stroke-linecap="round"/><circle cx="674.03" cy="165.31" r="2.35" class="dot"/></g><g><title>2026-09-06: 46 contributions</title><line x1="677.59" y1="196" x2="677.59" y2="143.96" class="stem" stroke-width="1.35" stroke-linecap="round"/><circle cx="677.59" cy="143.96" r="2.87" class="dot"/></g><g><title>2026-09-07: 20 contributions</title><line x1="681.16" y1="196" x2="681.16" y2="161.68" class="stem" stroke-width="1.35" stroke-linecap="round"/><circle cx="681.16" cy="161.68" r="2.43" class="dot"/></g><g><title>2026-09-08: 25 contributions</title><line x1="684.72" y1="196" x2="684.72" y2="157.63" class="stem" stroke-width="1.35" stroke-linecap="round"/><circle cx="684.72" cy="157.63" r="2.53" class="dot"/></g><g><title>2026-09-09: 3 contributions</title><line x1="688.28" y1="196" x2="688.28" y2="182.71" class="stem" stroke-width="1.35" stroke-linecap="round"/><circle cx="688.28" cy="182.71" r="1.92" class="dot"/></g><g><title>2026-09-10: 34 contributions</title><line x1="691.85" y1="196" x2="691.85" y2="151.26" class="stem" stroke-width="1.35" stroke-linecap="round"/><circle cx="691.85" cy="151.26" r="2.69" class="dot"/></g><g><title>2026-09-11: 3 contributions</title><line x1="695.41" y1="196" x2="695.41" y2="182.71" class="stem" stroke-width="1.35" stroke-linecap="round"/><circle cx="695.41" cy="182.71" r="1.92" class="dot"/></g><g><title>2026-09-12: 7 contributions</title><line x1="698.98" y1="196" x2="698.98" y2="175.70" class="stem" stroke-width="1.35" stroke-linecap="round"/><circle cx="698.98" cy="175.70" r="2.09" class="dot"/></g><g><title>2026-09-13: 7 contributions</title><line x1="702.54" y1="196" x2="702.54" y2="175.70" class="stem" stroke-width="1.35" stroke-linecap="round"/><circle cx="702.54" cy="175.70" r="2.09" class="dot"/></g><g><title>2026-09-14: 9 contributions</title><line x1="706.10" y1="196" x2="706.10" y2="172.98" class="stem" stroke-width="1.35" stroke-linecap="round"/><circle cx="706.10" cy="172.98" r="2.16" class="dot"/></g><g><title>2026-09-15: 8 contributions</title><line x1="709.67" y1="196" x2="709.67" y2="174.30" class="stem" stroke-width="1.35" stroke-linecap="round"/><circle cx="709.67" cy="174.30" r="2.13" class="dot"/></g><g><title>2026-09-16: 8 contributions</title><line x1="713.23" y1="196" x2="713.23" y2="174.30" class="stem" stroke-width="1.35" stroke-linecap="round"/><circle cx="713.23" cy="174.30" r="2.13" class="dot"/></g><g><title>2026-09-17: 1 contribution</title><line x1="716.80" y1="196" x2="716.80" y2="188.33" class="stem" stroke-width="1.35" stroke-linecap="round"/><circle cx="716.80" cy="188.33" r="1.79" class="dot"/></g><g><title>2026-09-19: 17 contributions</title><line x1="723.92" y1="196" x2="723.92" y2="164.36" class="stem" stroke-width="1.35" stroke-linecap="round"/><circle cx="723.92" cy="164.36" r="2.37" class="dot"/></g><g><title>2026-09-20: 5 contributions</title><line x1="727.49" y1="196" x2="727.49" y2="178.84" class="stem" stroke-width="1.35" stroke-linecap="round"/><circle cx="727.49" cy="178.84" r="2.02" class="dot"/></g><g><title>2026-09-21: 10 contributions</title><line x1="731.05" y1="196" x2="731.05" y2="171.73" class="stem" stroke-width="1.35" stroke-linecap="round"/><circle cx="731.05" cy="171.73" r="2.19" class="dot"/></g><g><title>2026-09-22: 3 contributions</title><line x1="734.62" y1="196" x2="734.62" y2="182.71" class="stem" stroke-width="1.35" stroke-linecap="round"/><circle cx="734.62" cy="182.71" r="1.92" class="dot"/></g></svg>